<!-- Created with Inkscape (http://www.inkscape.org/) -->
<svg
   xmlns:dc="http://purl.org/dc/elements/1.1/"
   xmlns:cc="http://creativecommons.org/ns#"
   xmlns:rdf="http://www.w3.org/1999/02/22-rdf-syntax-ns#"
   xmlns:svg="http://www.w3.org/2000/svg"
   xmlns="http://www.w3.org/2000/svg"
   xmlns:xlink="http://www.w3.org/1999/xlink"
   xmlns:sodipodi="http://sodipodi.sourceforge.net/DTD/sodipodi-0.dtd"
   xmlns:inkscape="http://www.inkscape.org/namespaces/inkscape"
   width="373.89001"
   height="325.37"
   id="svg2728"
   sodipodi:version="0.32"
   inkscape:version="0.46dev+devel"
   version="1.0"
   sodipodi:docname="Colour Cow C.svg"
   inkscape:output_extension="org.inkscape.output.svg.inkscape">
  <defs
     id="defs2730">
    <linearGradient
       inkscape:collect="always"
       xlink:href="#linearGradient2342"
       id="linearGradient2494"
       gradientUnits="userSpaceOnUse"
       gradientTransform="matrix(0.6539051,0,0,0.6539051,121.05118,274.98092)"
       x1="95.61174"
       y1="326.1926"
       x2="373.43198"
       y2="326.1926" />
    <linearGradient
       id="linearGradient2342">
      <stop
         style="stop-color:#c98b2b;stop-opacity:0.0000000;"
         offset="0.0000000"
         id="stop2344" />
      <stop
         style="stop-color:#c98b2b;stop-opacity:1.0000000;"
         offset="1.0000000"
         id="stop2346" />
    </linearGradient>
  </defs>
  <sodipodi:namedview
     id="base"
     pagecolor="#ffffff"
     bordercolor="#666666"
     borderopacity="1.0"
     gridtolerance="10000"
     guidetolerance="10"
     objecttolerance="10"
     inkscape:pageopacity="0.0"
     inkscape:pageshadow="2"
     inkscape:zoom="1.4"
     inkscape:cx="216.26556"
     inkscape:cy="179.74619"
     inkscape:document-units="px"
     inkscape:current-layer="layer1"
     showgrid="false"
     inkscape:window-width="1280"
     inkscape:window-height="998"
     inkscape:window-x="-4"
     inkscape:window-y="-4" />
  <metadata
     id="metadata2733">
    <rdf:RDF>
      <cc:Work
         rdf:about="">
        <dc:format>image/svg+xml</dc:format>
        <dc:type
           rdf:resource="http://purl.org/dc/dcmitype/StillImage" />
      </cc:Work>
    </rdf:RDF>
  </metadata>
  <g
     inkscape:label="Layer 1"
     inkscape:groupmode="layer"
     id="layer1"
     transform="translate(-112.3416,-303.24865)">
    <g
       id="g3649"
       transform="matrix(0.9683985,0,0,0.9690416,-47.610045,-372.87989)">
      <g
         transform="matrix(0.6081811,0,0,0.6081811,23.968036,526.96268)"
         id="g4125">
        <path
           d="M 757.36385,448.39146 L 756.56561,450.11466 L 755.76736,451.83786 L 754.96911,453.56106 L 754.17087,455.28426 C 760.90547,453.46384 768.12865,454.75367 775.4288,458.65058 C 782.72895,462.54749 790.10608,469.05148 797.14858,477.65937 C 804.19107,486.26726 810.89894,496.97905 816.86057,509.29156 C 822.8222,521.60406 828.0376,535.51729 832.09515,550.52806 L 832.93964,553.65224 L 833.78414,556.77643 L 834.62863,559.90061 L 835.47313,563.02479 C 838.60779,574.62138 840.81513,585.99978 842.14238,596.8642 C 843.46963,607.72861 843.91679,618.07904 843.53109,627.61965 C 843.14539,637.16027 841.92683,645.89107 839.92266,653.51625 C 837.91848,661.14144 835.12868,667.66099 831.60049,672.77911 C 836.80382,669.10191 841.04953,663.26675 844.26333,655.73931 C 847.47713,648.21186 849.65901,638.99214 850.73467,628.54581 C 851.81032,618.09948 851.77975,606.42656 850.56865,593.99272 C 849.35755,581.55888 846.96592,568.36413 843.31945,554.87414 L 842.47495,551.74996 L 841.63046,548.62577 L 840.78597,545.50159 L 839.94147,542.37741 C 835.88392,527.36665 830.66852,513.45342 824.70689,501.14091 C 818.74526,488.82841 812.0374,478.11662 804.9949,469.50873 C 797.9524,460.90084 790.57527,454.39685 783.27512,450.49994 C 775.97497,446.60303 768.75179,445.3132 762.01719,447.13362 L 760.85386,447.44808 L 759.69052,447.76254 L 758.52718,448.077 L 757.36385,448.39146 z"
           sodipodi:nodetypes="cccccssscccccssscssscccccsssccccc"
           id="path4048"
           style="fill:#d3d7cf;fill-opacity:1;stroke:#3e3e3e;stroke-width:3.40943122;stroke-miterlimit:4;stroke-dasharray:none;stroke-opacity:1" />
        <rect
           id="rect4050"
           width="35.816681"
           height="145.58694"
           x="700.62842"
           y="610.94922"
           style="fill:#2e3436" />
        <rect
           id="rect4052"
           width="35.818245"
           height="145.58539"
           x="722.92749"
           y="638.68103"
           style="fill:#2e3436" />
        <path
           d="M 719.16815,721.13613 C 696.5249,721.13613 682.97517,723.511 678.16922,758.51732 C 676.05667,773.88138 680.30208,783.32153 687.38609,788.88476 C 688.81164,782.47839 692.50589,768.67884 694.96351,764.28509 C 697.25719,780.97321 692.63236,784.42232 695.01972,793.06929 C 703.41061,796.02812 713.5331,795.86105 722.78745,793.52209 C 746.63452,787.48888 760.16707,791.31272 760.16707,758.51732 C 760.16864,725.78751 741.80984,721.13613 719.16815,721.13613 z"
           id="path4054"
           style="fill:#2e3436" />
        <path
           d="M 733.88996,747.63313 C 722.17097,747.63313 712.80498,748.24793 705.74692,753.39153 C 698.68886,758.53513 693.93872,768.20754 691.45143,786.32276 C 690.36002,794.27413 690.91275,800.69261 692.65448,805.84304 C 694.39621,810.99348 697.32694,814.87587 700.99152,817.75507 C 701.72927,814.44025 703.0545,809.21116 704.51303,804.24243 C 705.97156,799.2737 707.5634,794.56534 708.83437,792.29195 C 710.02181,800.92799 709.41833,806.13912 708.82715,810.30998 C 708.23597,814.48084 707.65709,817.61142 708.89371,822.08636 C 713.23592,823.6173 718.02665,824.33984 722.92902,824.37692 C 727.83139,824.414 732.8454,823.76563 737.63418,822.55478 C 749.97617,819.43201 759.64858,818.86093 766.23549,814.82708 C 772.8224,810.79323 776.32381,803.29661 776.32381,786.32276 C 776.3246,769.38326 771.57485,759.71085 763.89555,754.27332 C 756.21626,748.83579 745.6074,747.63313 733.88996,747.63313 z"
           sodipodi:nodetypes="cscscscscscscsc"
           id="path4056"
           style="fill:#2e3436" />
        <rect
           id="rect4058"
           width="35.816681"
           height="145.58694"
           x="385.82846"
           y="610.94922"
           style="fill:#2e3436" />
        <rect
           id="rect4060"
           width="35.818245"
           height="145.58539"
           x="455.15408"
           y="638.68103"
           style="fill:#2e3436" />
        <path
           d="M 399.66547,716.43347 C 388.34384,716.43347 379.29521,717.02719 372.47643,721.9967 C 365.65765,726.9662 361.06874,736.3115 358.66654,753.81466 C 357.61104,761.49669 358.14464,767.69774 359.82743,772.67369 C 361.51022,777.64964 364.34219,781.40049 367.88342,784.1821 C 368.59697,780.97891 369.87692,775.92743 371.28588,771.12753 C 372.69484,766.32763 374.2328,761.77931 375.4624,759.58243 C 376.60924,767.92649 376.02645,772.9608 375.45556,776.98996 C 374.88468,781.01912 374.3257,784.04314 375.52017,788.36662 C 379.71562,789.84604 384.34396,790.54398 389.08004,790.5797 C 393.81612,790.61541 398.65994,789.9889 403.28633,788.81943 C 415.21065,785.80282 424.55517,785.25048 430.91861,781.35287 C 437.28204,777.45525 440.6644,770.21236 440.6644,753.81466 C 440.6644,737.44975 436.07509,728.10446 428.65557,722.85039 C 421.23605,717.59632 410.98631,716.43347 399.66547,716.43347 z"
           sodipodi:nodetypes="cscscscscscsssc"
           id="path4062"
           style="fill:#2e3436" />
        <path
           d="M 466.11658,747.63313 C 454.39837,747.63313 445.03277,748.24793 437.97491,753.39153 C 430.91704,758.53513 426.16691,768.20754 423.67962,786.32276 C 422.58743,794.27413 423.13938,800.69261 424.88091,805.84304 C 426.62245,810.99348 429.55356,814.87587 433.2197,817.75507 C 433.95824,814.44025 435.28307,809.21116 436.74141,804.24243 C 438.19975,799.2737 439.79158,794.56534 441.06412,792.29195 C 442.25155,800.92799 441.64808,806.13912 441.05689,810.30998 C 440.46571,814.48084 439.88683,817.61142 441.12344,822.08636 C 445.46567,823.6173 450.25601,824.33984 455.15798,824.37692 C 460.05996,824.414 465.07358,823.76563 469.86236,822.55478 C 482.20513,819.43201 491.87793,818.86093 498.46503,814.82708 C 505.05214,810.79323 508.55355,803.29661 508.55355,786.32276 C 508.55355,769.38326 503.80303,759.71085 496.12314,754.27332 C 488.44326,748.83579 477.83402,747.63313 466.11658,747.63313 z"
           sodipodi:nodetypes="cscscscscscsssc"
           id="path4064"
           style="fill:#2e3436" />
        <path
           d="M 362.80388,602.68711 L 441.5735,600.33578 L 427.46551,724.95637 C 410.6143,730.8347 396.11441,733.18603 376.91187,724.95637 L 362.80388,602.68711 z"
           sodipodi:nodetypes="ccccc"
           id="path4066"
           style="fill:#c8c8c8;fill-opacity:1;stroke:#3e3e3e;stroke-width:5.87832928;stroke-miterlimit:4;stroke-dasharray:none;stroke-opacity:1" />
        <path
           d="M 418.64801,627.37524 C 399.50347,627.37524 383.96587,641.85944 383.96587,659.70605 C 383.96587,677.55266 399.50347,692.03686 418.64801,692.03686 C 422.86487,692.03686 426.88574,691.33952 430.62511,690.05293 L 437.16475,632.37182 C 431.80352,629.20517 425.46008,627.37524 418.64801,627.37524 z"
           id="path4068"
           style="fill:#c17d11;fill-opacity:1;stroke:#8f5902;stroke-width:3.5269978;stroke-miterlimit:4;stroke-dasharray:none;stroke-opacity:1" />
        <path
           id="path4070"
           sodipodi:nodetypes="ccccc"
           d="M 680.23368,607.38978 L 759.00329,605.03844 L 744.8953,729.65903 C 728.04409,735.53736 713.54421,737.88869 694.34167,729.65903 L 680.23368,607.38978 z"
           style="fill:#c8c8c8;fill-opacity:1;stroke:#3e3e3e;stroke-width:5.87832928;stroke-miterlimit:4;stroke-dasharray:none;stroke-opacity:1" />
        <path
           id="rect4072"
           transform="matrix(0.9890155,0.1478118,-0.1478118,0.9890155,0,0)"
           sodipodi:nodetypes="cccscccscccscccsc"
           d="M 659.80775,566.8598 L 660.68808,566.8598 L 661.56841,566.8598 C 664.28267,566.8598 666.73236,568.37295 668.5035,570.82589 C 670.27463,573.27882 671.36719,576.67155 671.36719,580.43068 L 671.36719,606.56719 L 671.36719,632.7037 C 671.36719,636.46283 670.27463,639.85555 668.5035,642.30848 C 666.73237,644.76142 664.28267,646.27457 661.56841,646.27457 L 660.68808,646.27457 L 659.80775,646.27457 C 657.09349,646.27457 654.64379,644.76142 652.87266,642.30848 C 651.10154,639.85555 650.00897,636.46283 650.00897,632.7037 L 650.00897,606.56719 L 650.00897,580.43068 C 650.00897,576.67155 651.10154,573.27882 652.87266,570.82589 C 654.6438,568.37295 657.09349,566.8598 659.80775,566.8598 z"
           style="fill:#c17d11;fill-opacity:1;stroke:#8f5902;stroke-width:3.86134267;stroke-miterlimit:4;stroke-opacity:1" />
        <path
           id="rect4074"
           transform="matrix(0.9967311,8.07911e-2,-8.07911e-2,0.9967311,0,0)"
           sodipodi:nodetypes="cccscccscccscccsc"
           d="M 691.09242,604.05365 L 691.97275,604.05365 L 692.85308,604.05365 C 695.56734,604.05365 698.01704,605.5668 699.78817,608.01974 C 701.5593,610.47267 702.65186,613.8654 702.65186,617.62453 L 702.65186,643.76104 L 702.65186,669.89755 C 702.65186,673.65669 701.5593,677.04941 699.78817,679.50234 C 698.01704,681.95528 695.56734,683.46843 692.85308,683.46843 L 691.97275,683.46843 L 691.09242,683.46843 C 688.37816,683.46843 685.92846,681.95528 684.15733,679.50234 C 682.38621,677.04941 681.29364,673.65669 681.29364,669.89755 L 681.29364,643.76104 L 681.29364,617.62453 C 681.29364,613.8654 682.38621,610.47268 684.15733,608.01974 C 685.92846,605.5668 688.37816,604.05365 691.09242,604.05365 z"
           style="fill:#c17d11;fill-opacity:1;stroke:#8f5902;stroke-width:3.86134338;stroke-miterlimit:4;stroke-opacity:1" />
        <path
           id="path4076"
           sodipodi:nodetypes="cssscccscccscccccscccscccscccsssccc"
           d="M 594.53211,582.23557 C 576.50697,582.23557 560.23633,589.41 548.47197,601.04031 C 536.70761,612.67061 529.44954,628.75679 529.44954,646.58027 C 529.44954,663.12096 535.70321,678.15888 546.00827,689.52775 C 556.31333,700.89662 570.66978,708.59645 586.87534,710.46096 L 585.69968,725.00039 L 584.52401,739.53981 C 584.52401,743.29894 585.61738,746.69405 587.38931,749.14938 C 589.16124,751.60471 591.61174,753.12025 594.32601,753.12025 L 595.21709,753.12025 L 596.10817,753.12025 C 598.82244,753.12025 601.27294,751.6047 603.04487,749.14937 C 604.8168,746.69404 605.91017,743.29894 605.91017,739.53981 L 607.08583,725.23239 L 608.2615,710.92498 L 627.13941,710.92498 L 646.01732,710.92498 C 647.45107,710.92498 648.87138,710.87382 650.2792,710.77864 C 651.68702,710.68345 653.08236,710.54425 654.46617,710.36815 L 656.8175,721.42699 L 659.16884,732.48582 C 659.16884,736.24495 660.2622,739.64006 662.03413,742.09539 C 663.80606,744.55072 666.25656,746.06627 668.97082,746.06627 L 669.86191,746.06627 L 670.753,746.06627 C 673.46726,746.06627 675.91776,744.55072 677.6897,742.09539 C 679.46163,739.64006 680.555,736.24495 680.555,732.48582 L 678.20367,718.14787 L 675.85233,703.80993 C 686.33122,698.47772 695.14311,690.41891 701.33528,680.56885 C 707.52744,670.71879 711.09989,659.07748 711.09989,646.58027 C 711.09989,628.75679 703.84182,612.67061 692.07746,601.04031 C 680.3131,589.41 664.04246,582.23557 646.01732,582.23557 L 620.27472,582.23557 L 594.53211,582.23557 z"
           style="fill:#e9b96e;fill-opacity:1;stroke:#8f5902;stroke-width:5.11238575;stroke-miterlimit:4;stroke-dasharray:none;stroke-opacity:1" />
        <path
           d="M 450.61143,415.82885 C 435.69367,415.82885 421.50227,419.44806 408.60641,426.00079 C 395.71054,432.55352 384.11021,442.03977 374.3746,453.77383 C 364.63899,465.50789 356.7681,479.48978 351.33111,495.03378 C 345.89413,510.57778 342.89104,527.68391 342.89104,545.66646 C 342.89104,561.87374 345.33004,577.36894 349.79154,591.65014 C 354.25303,605.93134 360.73703,618.99854 368.82703,630.34981 C 376.91703,641.70108 386.61304,651.33641 397.49855,658.75388 C 408.38406,666.17136 420.45907,671.37096 433.3071,673.85078 L 435.66762,694.26879 L 438.02814,714.6868 L 440.38865,735.10481 L 442.74917,755.52282 C 447.5498,757.58024 452.05652,758.97634 456.37954,759.82135 C 460.70256,760.66636 464.84189,760.96027 468.90773,760.81332 C 472.97358,760.66636 476.96594,760.07853 480.99505,759.16004 C 485.02415,758.24155 489.09,756.9924 493.3028,755.52282 L 495.57147,736.6938 L 497.84013,717.86477 L 500.1088,699.03575 L 502.37747,680.20672 C 518.60105,683.14589 534.31027,684.98286 549.8358,685.91972 C 565.36132,686.85658 580.70315,686.89332 596.19193,686.23201 C 611.68072,685.5707 627.31646,684.21133 643.42982,682.35599 C 659.54318,680.50064 676.13415,678.14931 693.5334,675.50406 L 697.26247,695.50875 L 700.99153,715.51344 L 704.7206,735.51813 L 708.44966,755.52282 C 713.2503,757.58024 717.75701,758.97634 722.08003,759.82135 C 726.40306,760.66636 730.54238,760.96027 734.60822,760.81332 C 738.67407,760.66636 742.66643,760.07853 746.69554,759.16004 C 750.72464,758.24155 754.79049,756.9924 759.00329,755.52282 L 762.44763,725.0841 L 765.89196,694.64537 L 769.3363,664.20664 L 772.78063,633.76792 C 777.20081,627.98954 781.19047,621.72302 784.68861,615.04134 C 788.18675,608.35965 791.19338,601.26279 793.64748,593.82371 C 796.10158,586.38464 798.00316,578.60336 799.29121,570.55283 C 800.57926,562.5023 801.25379,554.18252 801.25379,545.66646 C 801.25379,527.68391 798.2507,510.57778 792.81371,495.03378 C 787.37673,479.48978 779.50583,465.50789 769.77022,453.77383 C 760.03461,442.03977 748.43428,432.55352 735.53842,426.00079 C 722.64255,419.44806 708.45115,415.82885 693.5334,415.82885 L 632.80291,415.82885 L 572.07242,415.82885 L 511.34192,415.82885 L 450.61143,415.82885 z"
           sodipodi:nodetypes="cssssssscccccssscccccssscccccssscccccsssssssccccc"
           id="path4078"
           style="fill:#dcdcdc;fill-opacity:1;stroke:#3e3e3e;stroke-width:5.77026558;stroke-miterlimit:4;stroke-dasharray:none;stroke-opacity:1" />
        <path
           d="M 447.92944,418.21693 C 437.80611,418.41994 428.04588,420.47588 418.86235,424.01167 C 409.67883,427.54746 401.072,432.56309 393.25549,438.68546 C 385.43898,444.80783 378.41277,452.03694 372.39047,459.9997 C 366.36818,467.96245 361.34979,476.65885 357.54892,485.71579 C 351.72255,499.01293 347.95249,513.28069 346.25453,527.82992 C 344.55656,542.37915 344.9307,557.20985 347.39272,571.63287 C 349.85474,586.05589 354.40466,600.07123 361.05826,612.98975 C 367.71186,625.90827 376.46915,637.72996 387.34591,647.76569 C 390.67906,650.81699 394.23488,653.65336 397.97284,656.24103 C 401.7108,658.8287 405.6309,661.16767 409.69261,663.22418 C 413.75432,665.28069 417.95764,667.05473 422.26205,668.51255 C 426.56646,669.97038 430.97195,671.11197 435.43799,671.90358 C 436.3178,678.71449 437.12167,685.59272 437.89773,692.49433 C 438.6738,699.39594 439.42205,706.32093 440.19064,713.22534 C 440.95922,720.12975 441.74813,727.01358 442.60551,733.83288 C 443.46288,740.65218 444.38872,747.40695 445.43115,754.05324 C 449.04532,755.68271 452.80844,756.8216 456.64528,757.52772 C 460.48212,758.23384 464.39267,758.5072 468.30168,758.40561 C 472.21069,758.30402 476.11815,757.82749 479.94881,757.03383 C 483.77948,756.24018 487.53334,755.1294 491.13516,753.75932 C 491.9065,747.40068 492.67217,741.04132 493.43588,734.68171 C 494.19958,728.3221 494.96133,721.96223 495.72484,715.6026 C 496.48834,709.24296 497.25361,702.88355 498.02437,696.52483 C 498.79512,690.16612 499.57135,683.8081 500.35679,677.45126 C 516.47895,680.63232 532.71364,682.56945 549.00178,683.52682 C 565.28993,684.48419 581.63154,684.46179 597.96754,683.72381 C 614.30355,682.98582 630.63395,681.53223 646.89969,679.62722 C 663.16543,677.72221 679.3665,675.36577 695.44385,672.82207 C 696.69545,679.5742 697.95069,686.32566 699.2081,693.07672 C 700.46552,699.82779 701.72511,706.57845 702.9854,713.32898 C 704.24569,720.07952 705.50668,726.82992 706.76691,733.58047 C 708.02713,740.33102 709.28659,747.0817 710.54381,753.8328 C 714.1716,755.50271 717.96683,756.6837 721.84703,757.4282 C 725.72723,758.1727 729.6924,758.48072 733.66004,758.40468 C 737.62768,758.32864 741.59779,757.86855 745.48789,757.07685 C 749.37799,756.28514 753.18808,755.16182 756.83566,753.75932 C 758.03627,743.65512 759.18112,733.52817 760.30678,723.39341 C 761.43243,713.25864 762.5389,703.11605 763.66274,692.98055 C 764.78658,682.84504 765.9278,672.71662 767.12297,662.6102 C 768.31814,652.50377 769.56726,642.41934 770.90691,632.37182 C 781.18604,618.76705 788.64545,603.25788 793.27856,586.89812 C 797.91166,570.53835 799.71847,553.32799 798.6924,536.32085 C 797.66633,519.3137 793.80739,502.50977 787.10901,486.96286 C 780.41062,471.41596 770.87279,457.12607 758.48894,445.14702 C 753.59712,440.36599 748.21362,436.16224 742.46253,432.5779 C 736.71144,428.99355 730.59276,426.02861 724.23057,423.7252 C 717.86839,421.42179 711.26269,419.77991 704.53758,418.8417 C 697.81247,417.90349 690.96794,417.66894 684.12807,418.18019 C 664.4449,418.18635 644.76164,418.18636 625.07834,418.18424 C 605.39505,418.18213 585.71172,418.17789 566.02842,418.17558 C 546.34513,418.17326 526.66186,418.17286 506.97867,418.1784 C 487.29549,418.18395 467.61239,418.19545 447.92944,418.21693 z"
           sodipodi:nodetypes="cssscssscssscssscssscssscssscssscssscssscssscssscsssc"
           id="path4080"
           style="fill:#ffffff;fill-opacity:1;stroke:#d3d7cf;stroke-width:3.5269978;stroke-miterlimit:4;stroke-dasharray:none;stroke-opacity:1" />
        <path
           d="M 555.61309,654.41555 C 467.67439,671.46271 376.54448,635.6049 376.54448,635.6049 C 391.50636,651.67998 410.20878,665.14372 430.95577,669.14812 L 440.39783,750.82016 C 459.60037,759.04982 474.10026,756.69849 490.95147,750.82016 L 501.2018,680.20672 C 566.09612,691.96338 623.93642,684.90939 693.5334,674.32839 L 709.62532,757.87415 C 728.82786,766.10381 760.96274,756.69849 756.65196,748.46883 L 770.4293,626.71393 C 788.11001,603.6004 798.90245,572.67671 798.90245,538.61246 C 727.42484,454.92223 712.85704,608.70424 555.61309,654.41555 z"
           sodipodi:nodetypes="cccccccccccc"
           id="path4082"
           style="fill:#d3d7cf;fill-opacity:1;stroke:none;stroke-width:4.90808296;stroke-miterlimit:4;stroke-dasharray:none;stroke-opacity:1" />
        <path
           d="M 668.47702,462.78201 C 653.22628,462.78201 639.41221,465.87636 629.41081,470.87706 C 619.40943,475.87775 613.22072,482.78479 613.22072,490.41016 C 613.22072,496.17507 616.75998,501.53315 622.80977,505.9673 C 628.85956,510.40145 637.41988,513.91168 647.46199,515.98089 C 649.27125,521.68566 652.84406,526.60876 657.53981,530.10567 C 662.23557,533.60258 668.05428,535.6733 674.35535,535.6733 C 683.71302,536.35968 696.09091,530.41502 706.1127,521.6132 C 716.13448,512.81137 723.80013,501.1524 723.73332,490.41016 C 723.73332,482.78479 717.54461,475.87775 707.54322,470.87706 C 697.54183,465.87636 683.72776,462.78201 668.47702,462.78201 z"
           sodipodi:nodetypes="cssscscscsc"
           id="path4084"
           style="fill:#e9b96e;fill-opacity:1;stroke:#c17d11;stroke-width:3.5269978;stroke-miterlimit:4;stroke-dasharray:none;stroke-opacity:1" />
        <path
           d="M 776.67502,534.0935 C 772.52744,534.23146 755.20417,542.50437 750.92059,555.32896 C 746.637,568.15355 745.58217,576.64274 741.40504,599.196 C 741.00401,599.1849 740.59706,599.15926 740.19264,599.15926 C 721.37258,599.15926 706.09833,611.27332 706.09833,626.19957 C 706.09833,641.12583 721.37258,653.23989 740.19264,653.23989 C 740.20497,653.23989 740.21704,653.2399 740.22938,653.23989 C 740.54183,664.97387 750.1335,674.40187 761.94246,674.40187 C 764.15339,674.40187 766.28761,674.0608 768.2984,673.44665 L 772.78063,633.80466 C 772.64861,633.72862 772.51024,633.65756 772.37649,633.58422 C 791.27664,609.09421 799.452,575.22483 801.21705,545.66646 C 801.21705,545.46896 801.2178,545.27591 801.21705,545.07862 C 794.13039,537.77803 785.08541,533.81373 776.67502,534.0935 z"
           id="path4086"
           style="fill:#c17d11;fill-opacity:1;stroke:#8f5902;stroke-width:3.5269978;stroke-miterlimit:4;stroke-dasharray:none;stroke-opacity:1" />
        <path
           d="M 609.87742,635.64164 C 603.45621,635.64164 597.62783,637.50134 593.34304,640.52534 C 589.05825,643.54935 586.31705,647.73765 586.07019,652.39488 C 575.12439,653.67006 565.54454,656.96105 558.70116,661.51625 C 551.85777,666.07145 547.75083,671.89084 547.75083,678.22279 C 547.75083,679.56163 547.93302,680.87232 548.28589,682.15277 C 548.63875,683.43323 549.16229,684.68345 549.84498,685.90136 C 565.49931,686.84599 580.96373,686.88032 596.58036,686.20668 C 612.19698,685.53304 627.9658,684.15142 644.22891,682.26414 C 644.41611,681.60399 644.55388,680.93791 644.64486,680.26473 C 644.73583,679.59155 644.78,678.91129 644.78,678.22279 C 644.77999,674.7363 643.53385,671.40638 641.27127,668.35815 C 639.0087,665.30992 635.72969,662.54338 631.66398,660.18366 C 632.32295,659.10054 632.8373,657.95865 633.18691,656.77215 C 633.53652,655.58564 633.72139,654.35452 633.72139,653.09293 C 633.72141,648.27657 631.04964,643.91374 626.73326,640.75501 C 622.41687,637.59628 616.45587,635.64164 609.87742,635.64164 z"
           sodipodi:nodetypes="cscssscscssscsssc"
           id="path4088"
           style="fill:#c17d11;fill-opacity:1;stroke:#8f5902;stroke-width:4.25624609;stroke-miterlimit:4;stroke-dasharray:none;stroke-opacity:1" />
        <path
           d="M 449.21533,690.01619 C 444.20004,690.01619 439.52721,691.2732 435.54821,693.39623 L 440.25088,733.773 C 443.05552,734.66423 446.05474,735.20584 449.21533,735.20584 C 463.62582,735.20584 475.33715,725.07461 475.33715,712.61102 C 475.33715,700.14743 463.62582,690.01616 449.21533,690.01619 z"
           id="path4090"
           style="fill:#c17d11;fill-opacity:1;stroke:#8f5902;stroke-width:3.5269978;stroke-miterlimit:4;stroke-dasharray:none;stroke-opacity:1" />
        <path
           d="M 735.64978,704.42408 C 733.82818,704.42408 732.08145,704.7555 730.45735,705.36039 C 728.83325,705.96528 727.33179,706.84362 726.00072,707.93748 C 725.29059,707.163 724.44506,706.53338 723.50495,706.09739 C 722.56484,705.6614 721.53015,705.41903 720.44169,705.41903 C 718.27938,705.41903 716.32075,706.36622 714.90271,707.89694 C 713.48467,709.42766 712.60721,711.54192 712.60721,713.87606 C 712.60721,716.14256 713.43441,718.2041 714.78051,719.72537 C 716.12662,721.24664 717.99163,722.22765 720.06725,722.33309 C 720.42784,726.51441 722.28133,730.24545 725.06575,732.93117 C 727.85016,735.61689 731.5655,737.25728 735.64978,737.25728 C 739.97441,737.25728 743.89165,735.41862 746.72774,732.44722 C 749.56382,729.47581 751.31874,725.37166 751.31874,720.84068 C 751.31874,716.3097 749.56382,712.20555 746.72774,709.23414 C 743.89165,706.26274 739.97441,704.42408 735.64978,704.42408 z"
           sodipodi:nodetypes="cscssssscsssssc"
           id="path4092"
           style="fill:#c17d11;fill-opacity:1;stroke:#8f5902;stroke-width:3.5269978;stroke-miterlimit:4;stroke-dasharray:none;stroke-opacity:1" />
        <path
           d="M 846.82523,630.17141 C 837.47244,629.19409 831.56683,631.80015 824.6545,678.74467 C 821.62074,699.35019 822.01819,707.56119 824.15968,715.36105 C 825.65016,706.79443 829.15367,693.07408 830.78636,687.26271 C 829.38513,709.84043 829.33554,709.56148 829.10533,721.31237 C 831.48739,724.7085 832.22092,730.30072 835.43714,729.20777 C 838.34756,708.36375 844.40074,664.86293 844.40074,664.86293 L 839.25505,722.4668 C 842.24438,720.64911 842.41935,717.36002 844.61589,715.79054 C 846.05614,695.33098 847.78424,683.42225 847.78424,683.42225 L 848.68379,725.33327 C 851.64975,720.1557 858.34506,712.79619 858.49809,682.29996 C 858.72052,637.96879 856.17672,631.14862 846.82523,630.17141 z"
           sodipodi:nodetypes="cccccccccccsc"
           id="path4094"
           style="fill:#2e3436" />
        <path
           d="M 579.12641,514.51131 C 567.12051,514.51131 556.2456,519.31743 548.37216,527.08447 C 540.49873,534.85151 535.62677,545.57946 535.62677,557.42312 C 535.62677,558.03804 535.64695,558.64641 535.68001,559.25152 C 535.71306,559.85663 535.75898,560.45848 535.81047,561.06033 C 532.8003,561.14213 529.7089,561.39468 526.56441,561.81738 C 523.41991,562.24008 520.22233,562.83294 516.99981,563.59536 C 502.00091,567.144 489.25376,573.87918 480.76995,581.89811 C 472.28614,589.91703 468.06567,599.21969 470.12014,607.90327 C 472.17461,616.58685 480.12415,623.00872 491.30979,626.37254 C 502.49543,629.73636 516.91718,630.04212 531.91608,626.49349 C 541.82344,624.14947 550.74817,620.42066 558.11145,615.84947 C 565.47472,611.27828 571.27654,605.86471 574.9381,600.15122 C 575.6273,600.21627 576.32119,600.26219 577.01937,600.29185 C 577.71755,600.32152 578.42003,600.33492 579.12641,600.33492 C 591.13231,600.33492 602.00722,595.5288 609.88065,587.76176 C 617.75409,579.99473 622.62605,569.26678 622.62605,557.42312 C 622.62605,545.57946 617.75409,534.85151 609.88065,527.08447 C 602.00722,519.31743 591.13231,514.51131 579.12641,514.51131 z"
           sodipodi:nodetypes="cssscssssssscsssssc"
           id="path4096"
           style="fill:#e9b96e;fill-opacity:1;stroke:#c17d11;stroke-width:3.5269978;stroke-miterlimit:4;stroke-dasharray:none;stroke-opacity:1" />
      </g>
      <g
         id="g6949"
         transform="matrix(0.7661053,0,0,0.7661053,-0.7040254,622.74723)">
        <path
           d="M 297.75499,116.53902 C 303.10833,118.20311 297.56147,124.8136 326.10673,136.36937 C 327.96013,147.66133 318.19228,156.04751 304.80044,161.64891 C 296.6753,156.84006 290.48906,146.27805 289.65091,139.26548 C 288.53186,129.90264 292.15759,114.79906 297.75499,116.53902 z"
           sodipodi:nodetypes="cccsz"
           id="path6951"
           style="opacity:1;fill:#eeeeec;fill-opacity:1;stroke:#3e3e3e;stroke-width:2.07975388;stroke-miterlimit:4;stroke-dasharray:none;stroke-opacity:1" />
        <path
           id="path6953"
           d="M 296.60728,117.80869 C 292.43053,120.29131 292.01679,126.3134 291.14793,130.65551 C 289.05932,142.18985 295.57077,153.64213 304.90463,160.09702 C 313.51172,156.32299 324.01854,150.30886 324.92226,139.90608 C 325.96744,135.92196 320.6307,136.23433 318.33638,134.51172 C 310.70004,130.90445 302.84897,126.39738 298.68704,118.69692 C 298.16034,118.15002 297.40503,117.68956 296.60728,117.80869 z"
           style="opacity:1;fill:#eeeeec;fill-opacity:1;stroke:#ffffff;stroke-width:2.07975388;stroke-miterlimit:4;stroke-dasharray:none;stroke-opacity:1" />
        <path
           d="M 226.93513,196.70056 C 235.21835,203.29348 259.39584,197.07945 280.90273,182.82994 C 302.40961,168.58045 311.42244,146.92335 304.85865,145.07193 C 300.28721,143.78249 272.39795,144.69305 250.89106,158.94255 C 229.38416,173.19206 218.65191,190.10764 226.93513,196.70056 z"
           sodipodi:nodetypes="csssc"
           id="path6955"
           style="fill:#dcdcdc;fill-opacity:1;stroke:#3e3e3e;stroke-width:1.75717068;stroke-miterlimit:4;stroke-dasharray:none;stroke-opacity:1" />
        <path
           id="path6957"
           d="M 297.58217,146.08035 C 275.83092,146.95506 254.34953,155.16647 238.59082,170.25748 C 232.75664,176.0868 225.51036,182.89075 225.59236,191.7916 C 226.7138,197.85927 234.52726,198.27511 239.47904,197.83589 C 256.40768,195.89372 272.27587,187.70126 285.75357,177.55829 C 294.51911,170.17925 303.00978,161.08428 305.53289,149.67659 C 306.28314,147.2543 304.31352,145.58632 302.00164,146.10201 C 300.5302,146.02118 299.05427,146.01035 297.58217,146.08035 z"
           style="fill:#eeeeec;fill-opacity:1;stroke:#d3d7cf;stroke-width:1.75717068;stroke-miterlimit:4;stroke-dasharray:none;stroke-opacity:1" />
        <path
           id="path6959"
           d="M 350.11761,124.52457 C 327.63671,124.52457 307.33957,135.45172 292.94605,152.96953 C 271.22653,157.9997 253.37178,170.62791 244.61344,189.64686 C 239.16718,201.47354 237.89098,214.37168 240.1723,227.19074 C 232.05405,235.39771 228.53097,245.72098 232.19991,252.81938 C 235.53483,259.27154 243.91084,261.29758 253.23575,258.79867 C 253.80308,259.65208 254.39174,260.49116 254.99054,261.33337 C 246.02555,272.59592 246.99982,285.84929 258.89008,294.24114 C 269.76827,301.9187 286.81399,303.42193 302.3916,299.15889 C 350.05266,320.1109 402.0756,307.3067 419.2261,270.064 C 422.67778,262.56861 424.44591,254.64209 424.70712,246.58012 C 427.56493,237.09624 429.12659,226.90563 429.12659,216.2937 C 429.12659,165.64243 393.73651,124.52457 350.11761,124.52457 z"
           style="opacity:1;fill:#dcdcdc;fill-opacity:1;stroke:#3e3e3e;stroke-width:3.46625638;stroke-miterlimit:4;stroke-dasharray:none;stroke-opacity:1" />
        <path
           id="path6961"
           d="M 348.08119,125.23948 C 326.84511,125.73962 306.86391,137.08701 293.72596,153.51113 C 271.69757,158.14469 250.88319,173.07914 243.66022,195.04122 C 240.14172,205.24476 239.67295,216.36555 241.64545,226.95244 C 235.49258,233.07611 229.51624,242.75701 233.4131,251.4762 C 237.30316,258.68537 246.99113,258.62577 253.84234,256.52394 C 255.75245,258.96714 257.67141,261.22489 254.55726,263.56477 C 248.93246,271.06425 248.87775,282.61464 255.94376,289.23673 C 268.00898,300.73887 286.67073,301.14099 302.04497,297.12247 C 313.84821,301.66269 326.33859,305.71821 339.15227,306.67898 C 364.58073,309.15474 392.65471,302.04842 409.56391,282.00092 C 418.48039,271.73466 422.91059,258.26089 423.58255,244.83222 C 434.7832,207.31915 423.33865,162.3456 391.0411,138.80121 C 378.64897,129.75914 363.51255,124.74168 348.08119,125.23948 z"
           style="opacity:1;fill:#ffffff;fill-opacity:1;stroke:#d3d7cf;stroke-width:2.07975388;stroke-miterlimit:4;stroke-dasharray:none;stroke-opacity:1" />
        <path
           id="path6963"
           sodipodi:nodetypes="csscc"
           d="M 303.50028,259.64794 C 303.78116,259.81765 304.0613,259.97692 304.34767,260.14226 C 318.63996,268.39392 334.32122,267.99816 339.37326,259.24779 C 343.49441,252.10974 339.27381,241.62529 329.81655,233.51999"
           style="opacity:1;fill:none;fill-opacity:1;stroke:#3e3e3e;stroke-width:2.25971532;stroke-miterlimit:4;stroke-dasharray:none;stroke-opacity:1" />
        <path
           id="path6965"
           sodipodi:nodetypes="czcscsc"
           d="M 404.10456,149.48161 C 405.70457,177.73239 401.84333,225.20208 386.10169,247.90163 C 370.36004,270.60116 356.90279,279.60798 301.00509,297.77239 C 348.66616,318.7244 400.68909,305.9202 417.8396,268.6775 C 421.29127,261.18211 423.0594,253.25559 423.32061,245.19361 C 426.17843,235.70974 427.74009,225.51913 427.74009,214.9072 C 427.74009,189.29837 418.68721,166.13455 404.10456,149.48161 z"
           style="opacity:1;fill:#d3d7cf;fill-opacity:1;stroke:none;stroke-width:5;stroke-miterlimit:4;stroke-dasharray:none;stroke-opacity:1" />
        <path
           sodipodi:ry="23"
           id="path6967"
           sodipodi:rx="11.5"
           d="M 417,161.09448 A 11.5,23 0 1 1 394,161.09448 A 11.5,23 0 1 1 417,161.09448 z"
           transform="matrix(0.6072241,0.1451117,-0.1221391,0.2764681,90.53087,38.525368)"
           sodipodi:type="arc"
           sodipodi:cy="161.09448"
           sodipodi:cx="405.5"
           style="fill:#2e3436;fill-opacity:1;stroke:#3e3e3e;stroke-width:3;stroke-miterlimit:4;stroke-dasharray:none;stroke-opacity:1" />
        <path
           sodipodi:ry="23"
           id="path6969"
           sodipodi:rx="11.5"
           d="M 417,161.09448 A 11.5,23 0 1 1 394,161.09448 A 11.5,23 0 1 1 417,161.09448 z"
           transform="matrix(0.3736764,8.9299498e-2,-7.516251e-2,0.1701342,179.42497,75.826944)"
           sodipodi:type="arc"
           sodipodi:cy="161.09448"
           sodipodi:cx="405.5"
           style="fill:#eeeeec;fill-opacity:1;stroke:#3e3e3e;stroke-width:3;stroke-miterlimit:4;stroke-dasharray:none;stroke-opacity:1" />
        <path
           sodipodi:ry="15"
           id="path6971"
           sodipodi:rx="24.5"
           d="M 361,269.09448 A 24.5,15 0 1 1 312,269.09448 A 24.5,15 0 1 1 361,269.09448 z"
           transform="matrix(0.5753669,0.3321882,-0.3321882,0.5753669,206.55467,-25.202013)"
           sodipodi:type="arc"
           sodipodi:cy="269.09448"
           sodipodi:cx="336.5"
           style="opacity:1;fill:#2e3436;fill-opacity:1;stroke:#3e3e3e;stroke-width:3;stroke-miterlimit:4;stroke-dasharray:none;stroke-opacity:1" />
        <path
           sodipodi:ry="15"
           id="path6973"
           sodipodi:rx="24.5"
           d="M 361,269.09448 A 24.5,15 0 1 1 312,269.09448 A 24.5,15 0 1 1 361,269.09448 z"
           transform="matrix(-0.4742864,0.2936752,0.2738294,0.5086604,338.45389,4.186982)"
           sodipodi:type="arc"
           sodipodi:cy="269.09448"
           sodipodi:cx="336.5"
           style="opacity:1;fill:#2e3436;fill-opacity:1;stroke:#3e3e3e;stroke-width:3;stroke-miterlimit:4;stroke-dasharray:none;stroke-opacity:1" />
        <path
           sodipodi:ry="23"
           id="path6975"
           sodipodi:rx="11.5"
           d="M 417,161.09448 A 11.5,23 0 1 1 394,161.09448 A 11.5,23 0 1 1 417,161.09448 z"
           transform="matrix(-0.7529522,0.1799371,0.1514513,0.3428177,629.08682,15.448211)"
           sodipodi:type="arc"
           sodipodi:cy="161.09448"
           sodipodi:cx="405.5"
           style="fill:#2e3436;fill-opacity:1;stroke:#3e3e3e;stroke-width:3;stroke-miterlimit:4;stroke-dasharray:none;stroke-opacity:1" />
        <path
           sodipodi:ry="23"
           id="path6977"
           sodipodi:rx="11.5"
           d="M 417,161.09448 A 11.5,23 0 1 1 394,161.09448 A 11.5,23 0 1 1 417,161.09448 z"
           transform="matrix(-0.4633552,0.1107305,9.3200839e-2,0.2109647,518.85899,61.701805)"
           sodipodi:type="arc"
           sodipodi:cy="161.09448"
           sodipodi:cx="405.5"
           style="fill:#eeeeec;fill-opacity:1;stroke:#3e3e3e;stroke-width:3;stroke-miterlimit:4;stroke-dasharray:none;stroke-opacity:1" />
        <path
           id="path6979"
           d="M 254.34587,257.98119 C 254.34587,257.98119 258.66093,265.31804 275.85241,265.31804 C 293.0439,265.31804 305.50597,259.65133 305.50597,259.65133"
           style="fill:none;fill-rule:evenodd;stroke:#3e3e3e;stroke-width:2.07975388;stroke-linecap:butt;stroke-linejoin:miter;stroke-miterlimit:4;stroke-dasharray:none;stroke-opacity:1" />
        <path
           id="path6981"
           sodipodi:nodetypes="csscc"
           d="M 320.8682,290.64758 C 320.51152,290.89898 320.14835,291.13678 319.77896,291.38316 C 301.34427,303.67898 274.08708,304.96258 258.88963,294.23659 C 246.49245,285.48696 245.94832,271.45946 256.17846,259.90611"
           style="opacity:1;fill:none;fill-opacity:1;stroke:#3e3e3e;stroke-width:3.46625638;stroke-miterlimit:4;stroke-dasharray:none;stroke-opacity:1" />
        <path
           id="path6983"
           sodipodi:nodetypes="cs"
           d="M 279.23267,265.53671 C 279.23267,265.53671 265.36765,264.84346 265.36765,279.40174"
           style="fill:none;fill-rule:evenodd;stroke:#3e3e3e;stroke-width:2.07975388;stroke-linecap:butt;stroke-linejoin:miter;stroke-miterlimit:4;stroke-dasharray:none;stroke-opacity:1" />
        <path
           id="path6985"
           sodipodi:nodetypes="cccsz"
           d="M 399.62881,106.0628 C 394.34751,109.04413 401.72006,114.7864 374.17051,133.52581 C 374.78527,145.91233 387.02604,152.57568 402.46395,155.46374 C 409.9592,148.51959 414.09249,135.92063 413.37988,128.29951 C 412.42844,118.12414 405.15089,102.94556 399.62881,106.0628 z"
           style="opacity:1;fill:#eeeeec;fill-opacity:1;stroke:#3e3e3e;stroke-width:2.07975388;stroke-miterlimit:4;stroke-dasharray:none;stroke-opacity:1" />
        <path
           id="path6987"
           d="M 400.89827,107.0633 C 397.3931,108.44317 398.02643,113.47761 395.61718,116.01606 C 390.56492,123.53069 382.99501,129.02643 375.61626,134.20842 C 376.47093,144.29474 386.56249,149.85409 395.2571,152.30526 C 398.14662,152.70519 402.18907,155.65472 403.86781,151.94953 C 411.17575,142.8212 414.55889,129.82758 409.70851,118.82066 C 407.77013,114.57401 406.05756,108.69054 401.22323,107.04163 C 401.12028,107.06422 400.99186,107.00394 400.89827,107.0633 z"
           style="opacity:1;fill:#eeeeec;fill-opacity:1;stroke:#ffffff;stroke-width:2.07975388;stroke-miterlimit:4;stroke-dasharray:none;stroke-opacity:1" />
        <path
           id="path6989"
           sodipodi:nodetypes="csssc"
           d="M 481.55027,227.55794 C 472.27364,239.49222 442.92109,232.21427 416.03119,211.3125 C 389.14128,190.41075 376.47061,155.70435 384.12306,151.82691 C 389.45272,149.12643 422.75224,147.17059 449.64215,168.07235 C 476.53205,188.97411 490.82689,215.62365 481.55027,227.55794 z"
           style="fill:#dcdcdc;fill-opacity:1;stroke:#3e3e3e;stroke-width:2.07975388;stroke-miterlimit:4;stroke-opacity:1" />
        <path
           id="path6991"
           d="M 394.52902,151.60469 C 391.02625,152.05586 386.68669,151.38047 383.97861,153.81443 C 381.94363,160.65306 385.59682,167.82073 388.17271,174.13466 C 400.54497,200.69781 424.93459,220.38367 452.39384,229.48714 C 461.0905,231.88646 472.15691,234.26763 479.64728,227.64569 C 485.80854,220.63537 482.27141,210.49228 478.62234,203.17345 C 469.82717,186.82832 456.17085,173.47791 440.59543,163.60264 C 426.79078,155.42996 410.57685,151.31182 394.52902,151.60469 z"
           style="fill:#eeeeec;fill-opacity:1;stroke:#d3d7cf;stroke-width:2.07975388;stroke-miterlimit:4;stroke-opacity:1" />
      </g>
    </g>
  </g>
</svg>
