<?xml version="1.0" encoding="UTF-8"?>
<svg xmlns="http://www.w3.org/2000/svg" xmlns:xlink="http://www.w3.org/1999/xlink" width="700pt" height="325pt" version="1.1">
<g id="surface2">
<path style="fill-rule:nonzero;fill:rgb(87.843137%,87.843137%,87.843137%);fill-opacity:1;stroke-width:2;stroke-linecap:round;stroke-linejoin:round;stroke:rgb(0%,0%,0%);stroke-opacity:1;stroke-miterlimit:10;" d="M 320 18 C 347.614583 18 370 46.213542 370 68 C 370 95.614583 341.348958 118 320 118 C 292.385417 118 270 103.130208 270 68 C 270 40.385417 302.96875 18 320 18 Z M 320 18 " transform="matrix(0.75,0,0,0.75,-25.125,-10.875)"/>
<path style=" stroke:none;fill-rule:nonzero;fill:rgb(0%,0%,0%);fill-opacity:1;" d="M 192.453125 43.015625 L 192.453125 41.78125 L 199.5625 38.78125 L 199.5625 40.078125 L 193.921875 42.40625 L 199.5625 44.734375 L 199.5625 46.046875 Z M 201.367188 47.703125 L 201.367188 36.96875 L 202.695312 36.96875 L 202.695312 40.8125 C 203.308594 40.105469 204.085938 39.75 205.023438 39.75 C 205.59375 39.75 206.09375 39.867188 206.523438 40.09375 C 206.949219 40.324219 207.25 40.636719 207.429688 41.03125 C 207.617188 41.429688 207.710938 42.011719 207.710938 42.78125 L 207.710938 47.703125 L 206.382812 47.703125 L 206.382812 42.78125 C 206.382812 42.117188 206.242188 41.636719 205.960938 41.34375 C 205.679688 41.042969 205.273438 40.890625 204.742188 40.890625 C 204.355469 40.890625 203.992188 40.992188 203.648438 41.1875 C 203.304688 41.386719 203.058594 41.664062 202.914062 42.015625 C 202.765625 42.359375 202.695312 42.839844 202.695312 43.453125 L 202.695312 47.703125 Z M 212.601562 46.53125 L 212.789062 47.6875 C 212.414062 47.769531 212.078125 47.8125 211.789062 47.8125 C 211.308594 47.8125 210.933594 47.734375 210.664062 47.578125 C 210.402344 47.421875 210.21875 47.226562 210.117188 46.984375 C 210.011719 46.734375 209.960938 46.214844 209.960938 45.421875 L 209.960938 40.953125 L 208.992188 40.953125 L 208.992188 39.921875 L 209.960938 39.921875 L 209.960938 38 L 211.273438 37.203125 L 211.273438 39.921875 L 212.601562 39.921875 L 212.601562 40.953125 L 211.273438 40.953125 L 211.273438 45.5 C 211.273438 45.875 211.292969 46.121094 211.335938 46.234375 C 211.386719 46.339844 211.464844 46.421875 211.570312 46.484375 C 211.671875 46.546875 211.820312 46.578125 212.007812 46.578125 C 212.164062 46.578125 212.359375 46.5625 212.601562 46.53125 Z M 213.878906 47.703125 L 213.878906 39.921875 L 215.066406 39.921875 L 215.066406 41.015625 C 215.304688 40.632812 215.628906 40.324219 216.035156 40.09375 C 216.441406 39.867188 216.902344 39.75 217.425781 39.75 C 217.996094 39.75 218.464844 39.871094 218.832031 40.109375 C 219.207031 40.351562 219.464844 40.683594 219.613281 41.109375 C 220.226562 40.203125 221.027344 39.75 222.019531 39.75 C 222.789062 39.75 223.382812 39.964844 223.800781 40.390625 C 224.214844 40.820312 224.425781 41.476562 224.425781 42.359375 L 224.425781 47.703125 L 223.113281 47.703125 L 223.113281 42.796875 C 223.113281 42.277344 223.070312 41.902344 222.988281 41.671875 C 222.902344 41.433594 222.746094 41.246094 222.519531 41.109375 C 222.289062 40.964844 222.023438 40.890625 221.722656 40.890625 C 221.179688 40.890625 220.726562 41.074219 220.363281 41.4375 C 219.996094 41.804688 219.816406 42.386719 219.816406 43.1875 L 219.816406 47.703125 L 218.503906 47.703125 L 218.503906 42.65625 C 218.503906 42.0625 218.394531 41.621094 218.175781 41.328125 C 217.964844 41.039062 217.617188 40.890625 217.128906 40.890625 C 216.753906 40.890625 216.410156 40.992188 216.097656 41.1875 C 215.785156 41.386719 215.554688 41.671875 215.410156 42.046875 C 215.273438 42.421875 215.207031 42.964844 215.207031 43.671875 L 215.207031 47.703125 Z M 226.34375 47.703125 L 226.34375 36.96875 L 227.671875 36.96875 L 227.671875 47.703125 Z M 236.660156 43.015625 L 229.550781 46.046875 L 229.550781 44.734375 L 235.175781 42.40625 L 229.550781 40.078125 L 229.550781 38.78125 L 236.660156 41.78125 Z M 191.625 34.125 "/>
<path style="fill-rule:nonzero;fill:rgb(87.843137%,87.843137%,87.843137%);fill-opacity:1;stroke-width:2;stroke-linecap:round;stroke-linejoin:round;stroke:rgb(0%,0%,0%);stroke-opacity:1;stroke-miterlimit:10;" d="M 184 110 C 211.614583 110 234 145.927083 234 160 C 234 187.614583 194.958333 210 184 210 C 156.385417 210 134 190.510417 134 160 C 134 132.385417 169.078125 110 184 110 Z M 184 110 " transform="matrix(0.75,0,0,0.75,-25.125,-10.875)"/>
<path style=" stroke:none;fill-rule:nonzero;fill:rgb(0%,0%,0%);fill-opacity:1;" d="M 88.203125 112.015625 L 88.203125 110.78125 L 95.3125 107.78125 L 95.3125 109.078125 L 89.671875 111.40625 L 95.3125 113.734375 L 95.3125 115.046875 Z M 97.117188 116.703125 L 97.117188 105.96875 L 98.445312 105.96875 L 98.445312 109.8125 C 99.058594 109.105469 99.835938 108.75 100.773438 108.75 C 101.34375 108.75 101.84375 108.867188 102.273438 109.09375 C 102.699219 109.324219 103 109.636719 103.179688 110.03125 C 103.367188 110.429688 103.460938 111.011719 103.460938 111.78125 L 103.460938 116.703125 L 102.132812 116.703125 L 102.132812 111.78125 C 102.132812 111.117188 101.992188 110.636719 101.710938 110.34375 C 101.429688 110.042969 101.023438 109.890625 100.492188 109.890625 C 100.105469 109.890625 99.742188 109.992188 99.398438 110.1875 C 99.054688 110.386719 98.808594 110.664062 98.664062 111.015625 C 98.515625 111.359375 98.445312 111.839844 98.445312 112.453125 L 98.445312 116.703125 Z M 110.789062 114.203125 L 112.148438 114.359375 C 111.9375 115.164062 111.542969 115.78125 110.960938 116.21875 C 110.375 116.65625 109.632812 116.875 108.726562 116.875 C 107.589844 116.875 106.6875 116.527344 106.023438 115.828125 C 105.355469 115.132812 105.023438 114.148438 105.023438 112.875 C 105.023438 111.574219 105.359375 110.5625 106.039062 109.84375 C 106.714844 109.117188 107.589844 108.75 108.664062 108.75 C 109.703125 108.75 110.554688 109.105469 111.210938 109.8125 C 111.867188 110.523438 112.195312 111.515625 112.195312 112.796875 C 112.195312 112.882812 112.195312 113 112.195312 113.15625 L 106.382812 113.15625 C 106.433594 114.011719 106.671875 114.667969 107.101562 115.125 C 107.539062 115.574219 108.085938 115.796875 108.742188 115.796875 C 109.21875 115.796875 109.632812 115.671875 109.976562 115.421875 C 110.320312 115.164062 110.589844 114.757812 110.789062 114.203125 Z M 106.460938 112.0625 L 110.804688 112.0625 C 110.742188 111.40625 110.574219 110.917969 110.304688 110.59375 C 109.886719 110.085938 109.34375 109.828125 108.679688 109.828125 C 108.0625 109.828125 107.546875 110.03125 107.132812 110.4375 C 106.726562 110.84375 106.5 111.386719 106.460938 112.0625 Z M 118.882812 115.75 C 118.390625 116.15625 117.921875 116.449219 117.476562 116.625 C 117.027344 116.789062 116.542969 116.875 116.023438 116.875 C 115.167969 116.875 114.511719 116.667969 114.054688 116.25 C 113.59375 115.835938 113.367188 115.304688 113.367188 114.65625 C 113.367188 114.273438 113.449219 113.921875 113.617188 113.609375 C 113.792969 113.296875 114.023438 113.046875 114.304688 112.859375 C 114.585938 112.664062 114.902344 112.515625 115.257812 112.421875 C 115.507812 112.351562 115.898438 112.28125 116.429688 112.21875 C 117.492188 112.09375 118.273438 111.945312 118.773438 111.765625 C 118.78125 111.589844 118.789062 111.476562 118.789062 111.421875 C 118.789062 110.882812 118.664062 110.5 118.414062 110.28125 C 118.070312 109.992188 117.570312 109.84375 116.914062 109.84375 C 116.289062 109.84375 115.824219 109.953125 115.523438 110.171875 C 115.230469 110.382812 115.015625 110.761719 114.882812 111.3125 L 113.585938 111.140625 C 113.699219 110.589844 113.890625 110.148438 114.164062 109.8125 C 114.433594 109.46875 114.824219 109.210938 115.335938 109.03125 C 115.84375 108.84375 116.433594 108.75 117.101562 108.75 C 117.765625 108.75 118.304688 108.828125 118.710938 108.984375 C 119.125 109.140625 119.433594 109.339844 119.632812 109.578125 C 119.828125 109.808594 119.964844 110.105469 120.039062 110.46875 C 120.078125 110.699219 120.101562 111.105469 120.101562 111.6875 L 120.101562 113.4375 C 120.101562 114.667969 120.125 115.445312 120.179688 115.765625 C 120.242188 116.089844 120.355469 116.402344 120.523438 116.703125 L 119.148438 116.703125 C 119.011719 116.433594 118.921875 116.117188 118.882812 115.75 Z M 118.773438 112.796875 C 118.292969 112.996094 117.574219 113.164062 116.617188 113.296875 C 116.074219 113.382812 115.6875 113.46875 115.460938 113.5625 C 115.242188 113.65625 115.070312 113.796875 114.945312 113.984375 C 114.828125 114.171875 114.773438 114.382812 114.773438 114.609375 C 114.773438 114.964844 114.902344 115.261719 115.164062 115.5 C 115.433594 115.730469 115.824219 115.84375 116.335938 115.84375 C 116.84375 115.84375 117.296875 115.734375 117.695312 115.515625 C 118.089844 115.289062 118.382812 114.980469 118.570312 114.59375 C 118.703125 114.304688 118.773438 113.867188 118.773438 113.28125 Z M 127.191406 116.703125 L 127.191406 115.71875 C 126.699219 116.492188 125.976562 116.875 125.019531 116.875 C 124.402344 116.875 123.835938 116.707031 123.316406 116.375 C 122.792969 116.03125 122.386719 115.554688 122.097656 114.9375 C 121.816406 114.324219 121.675781 113.621094 121.675781 112.828125 C 121.675781 112.046875 121.804688 111.34375 122.066406 110.71875 C 122.324219 110.085938 122.710938 109.601562 123.222656 109.265625 C 123.742188 108.921875 124.320312 108.75 124.957031 108.75 C 125.425781 108.75 125.839844 108.851562 126.207031 109.046875 C 126.582031 109.246094 126.882812 109.5 127.113281 109.8125 L 127.113281 105.96875 L 128.425781 105.96875 L 128.425781 116.703125 Z M 123.035156 112.828125 C 123.035156 113.820312 123.242188 114.5625 123.660156 115.0625 C 124.074219 115.554688 124.570312 115.796875 125.144531 115.796875 C 125.714844 115.796875 126.207031 115.5625 126.613281 115.09375 C 127.019531 114.617188 127.222656 113.898438 127.222656 112.9375 C 127.222656 111.867188 127.011719 111.085938 126.597656 110.59375 C 126.191406 110.09375 125.683594 109.84375 125.082031 109.84375 C 124.496094 109.84375 124.007812 110.085938 123.613281 110.5625 C 123.226562 111.042969 123.035156 111.796875 123.035156 112.828125 Z M 137.441406 112.015625 L 130.332031 115.046875 L 130.332031 113.734375 L 135.957031 111.40625 L 130.332031 109.078125 L 130.332031 107.78125 L 137.441406 110.78125 Z M 87.375 103.125 "/>
<path style="fill-rule:nonzero;fill:rgb(87.843137%,87.843137%,87.843137%);fill-opacity:1;stroke-width:2;stroke-linecap:round;stroke-linejoin:round;stroke:rgb(0%,0%,0%);stroke-opacity:1;stroke-miterlimit:10;" d="M 450 102 C 477.614583 102 500 118.885417 500 152 C 500 179.614583 465.067708 202 450 202 C 422.385417 202 400 178.90625 400 152 C 400 124.385417 423.15625 102 450 102 Z M 450 102 " transform="matrix(0.75,0,0,0.75,-25.125,-10.875)"/>
<path style=" stroke:none;fill-rule:nonzero;fill:rgb(0%,0%,0%);fill-opacity:1;" d="M 288.078125 106.015625 L 288.078125 104.78125 L 295.1875 101.78125 L 295.1875 103.078125 L 289.546875 105.40625 L 295.1875 107.734375 L 295.1875 109.046875 Z M 298.210938 110.703125 L 296.992188 110.703125 L 296.992188 99.96875 L 298.304688 99.96875 L 298.304688 103.796875 C 298.867188 103.101562 299.578125 102.75 300.445312 102.75 C 300.921875 102.75 301.375 102.851562 301.804688 103.046875 C 302.230469 103.234375 302.578125 103.507812 302.851562 103.859375 C 303.132812 104.203125 303.351562 104.625 303.507812 105.125 C 303.664062 105.617188 303.742188 106.140625 303.742188 106.703125 C 303.742188 108.039062 303.40625 109.070312 302.742188 109.796875 C 302.085938 110.515625 301.292969 110.875 300.367188 110.875 C 299.449219 110.875 298.730469 110.496094 298.210938 109.734375 Z M 298.195312 106.75 C 298.195312 107.6875 298.324219 108.367188 298.585938 108.78125 C 298.992188 109.460938 299.546875 109.796875 300.257812 109.796875 C 300.839844 109.796875 301.339844 109.546875 301.757812 109.046875 C 302.171875 108.546875 302.382812 107.804688 302.382812 106.8125 C 302.382812 105.792969 302.179688 105.042969 301.773438 104.5625 C 301.375 104.074219 300.890625 103.828125 300.320312 103.828125 C 299.746094 103.828125 299.246094 104.078125 298.820312 104.578125 C 298.402344 105.078125 298.195312 105.804688 298.195312 106.75 Z M 304.851562 106.8125 C 304.851562 105.375 305.25 104.308594 306.054688 103.609375 C 306.71875 103.039062 307.53125 102.75 308.492188 102.75 C 309.5625 102.75 310.4375 103.101562 311.117188 103.796875 C 311.792969 104.496094 312.132812 105.464844 312.132812 106.703125 C 312.132812 107.703125 311.980469 108.492188 311.679688 109.0625 C 311.386719 109.636719 310.949219 110.085938 310.367188 110.40625 C 309.792969 110.71875 309.167969 110.875 308.492188 110.875 C 307.40625 110.875 306.527344 110.527344 305.851562 109.828125 C 305.183594 109.132812 304.851562 108.125 304.851562 106.8125 Z M 306.210938 106.8125 C 306.210938 107.8125 306.421875 108.5625 306.851562 109.0625 C 307.289062 109.554688 307.835938 109.796875 308.492188 109.796875 C 309.148438 109.796875 309.695312 109.546875 310.132812 109.046875 C 310.570312 108.546875 310.789062 107.789062 310.789062 106.765625 C 310.789062 105.808594 310.570312 105.085938 310.132812 104.59375 C 309.695312 104.09375 309.148438 103.84375 308.492188 103.84375 C 307.835938 103.84375 307.289062 104.089844 306.851562 104.578125 C 306.421875 105.070312 306.210938 105.8125 306.210938 106.8125 Z M 318.726562 110.703125 L 318.726562 109.71875 C 318.234375 110.492188 317.511719 110.875 316.554688 110.875 C 315.9375 110.875 315.371094 110.707031 314.851562 110.375 C 314.328125 110.03125 313.921875 109.554688 313.632812 108.9375 C 313.351562 108.324219 313.210938 107.621094 313.210938 106.828125 C 313.210938 106.046875 313.339844 105.34375 313.601562 104.71875 C 313.859375 104.085938 314.246094 103.601562 314.757812 103.265625 C 315.277344 102.921875 315.855469 102.75 316.492188 102.75 C 316.960938 102.75 317.375 102.851562 317.742188 103.046875 C 318.117188 103.246094 318.417969 103.5 318.648438 103.8125 L 318.648438 99.96875 L 319.960938 99.96875 L 319.960938 110.703125 Z M 314.570312 106.828125 C 314.570312 107.820312 314.777344 108.5625 315.195312 109.0625 C 315.609375 109.554688 316.105469 109.796875 316.679688 109.796875 C 317.25 109.796875 317.742188 109.5625 318.148438 109.09375 C 318.554688 108.617188 318.757812 107.898438 318.757812 106.9375 C 318.757812 105.867188 318.546875 105.085938 318.132812 104.59375 C 317.726562 104.09375 317.21875 103.84375 316.617188 103.84375 C 316.03125 103.84375 315.542969 104.085938 315.148438 104.5625 C 314.761719 105.042969 314.570312 105.796875 314.570312 106.828125 Z M 321.972656 113.703125 L 321.816406 112.46875 C 322.105469 112.539062 322.355469 112.578125 322.566406 112.578125 C 322.867188 112.578125 323.101562 112.523438 323.269531 112.421875 C 323.445312 112.328125 323.589844 112.191406 323.707031 112.015625 C 323.789062 111.890625 323.925781 111.566406 324.113281 111.046875 C 324.132812 110.972656 324.167969 110.863281 324.222656 110.71875 L 321.269531 102.921875 L 322.691406 102.921875 L 324.316406 107.421875 C 324.523438 107.996094 324.710938 108.601562 324.878906 109.234375 C 325.035156 108.632812 325.214844 108.039062 325.425781 107.453125 L 327.082031 102.921875 L 328.410156 102.921875 L 325.441406 110.828125 C 325.128906 111.679688 324.882812 112.269531 324.707031 112.59375 C 324.464844 113.03125 324.195312 113.347656 323.894531 113.546875 C 323.589844 113.753906 323.230469 113.859375 322.816406 113.859375 C 322.566406 113.859375 322.285156 113.804688 321.972656 113.703125 Z M 336.472656 106.015625 L 329.363281 109.046875 L 329.363281 107.734375 L 334.988281 105.40625 L 329.363281 103.078125 L 329.363281 101.78125 L 336.472656 104.78125 Z M 287.25 97.125 "/>
<path style="fill-rule:nonzero;fill:rgb(87.843137%,87.843137%,87.843137%);fill-opacity:1;stroke-width:2;stroke-linecap:round;stroke-linejoin:round;stroke:rgb(0%,0%,0%);stroke-opacity:1;stroke-miterlimit:10;" d="M 445 232 C 472.614583 232 495 258.494792 495 282 C 495 309.614583 458.651042 332 445 332 C 417.385417 332 395 295.078125 395 282 C 395 254.385417 431.630208 232 445 232 Z M 445 232 " transform="matrix(0.75,0,0,0.75,-25.125,-10.875)"/>
<path style=" stroke:none;fill-rule:nonzero;fill:rgb(0%,0%,0%);fill-opacity:1;" d="M 288.828125 203.515625 L 288.828125 202.28125 L 295.9375 199.28125 L 295.9375 200.578125 L 290.296875 202.90625 L 295.9375 205.234375 L 295.9375 206.546875 Z M 297.226562 205.875 L 298.523438 205.671875 C 298.59375 206.195312 298.796875 206.59375 299.132812 206.875 C 299.464844 207.15625 299.933594 207.296875 300.539062 207.296875 C 301.140625 207.296875 301.589844 207.179688 301.882812 206.9375 C 302.171875 206.6875 302.320312 206.398438 302.320312 206.0625 C 302.320312 205.761719 302.1875 205.527344 301.929688 205.359375 C 301.75 205.234375 301.304688 205.085938 300.585938 204.90625 C 299.617188 204.667969 298.945312 204.460938 298.570312 204.28125 C 298.203125 204.09375 297.921875 203.84375 297.726562 203.53125 C 297.539062 203.21875 297.445312 202.871094 297.445312 202.484375 C 297.445312 202.140625 297.523438 201.824219 297.679688 201.53125 C 297.835938 201.230469 298.046875 200.984375 298.320312 200.796875 C 298.527344 200.640625 298.808594 200.511719 299.164062 200.40625 C 299.515625 200.304688 299.898438 200.25 300.304688 200.25 C 300.90625 200.25 301.4375 200.339844 301.898438 200.515625 C 302.367188 200.695312 302.710938 200.933594 302.929688 201.234375 C 303.148438 201.527344 303.296875 201.929688 303.382812 202.4375 L 302.101562 202.609375 C 302.039062 202.203125 301.867188 201.890625 301.585938 201.671875 C 301.304688 201.445312 300.90625 201.328125 300.398438 201.328125 C 299.792969 201.328125 299.359375 201.433594 299.101562 201.640625 C 298.839844 201.839844 298.710938 202.074219 298.710938 202.34375 C 298.710938 202.511719 298.761719 202.664062 298.867188 202.796875 C 298.980469 202.945312 299.152344 203.0625 299.382812 203.15625 C 299.507812 203.199219 299.890625 203.308594 300.539062 203.484375 C 301.476562 203.734375 302.125 203.9375 302.492188 204.09375 C 302.867188 204.25 303.15625 204.484375 303.367188 204.796875 C 303.574219 205.101562 303.679688 205.476562 303.679688 205.921875 C 303.679688 206.359375 303.546875 206.773438 303.289062 207.15625 C 303.039062 207.542969 302.667969 207.84375 302.179688 208.0625 C 301.699219 208.269531 301.152344 208.375 300.539062 208.375 C 299.527344 208.375 298.757812 208.167969 298.226562 207.75 C 297.703125 207.335938 297.371094 206.710938 297.226562 205.875 Z M 307.414062 208.203125 L 304.445312 200.421875 L 305.835938 200.421875 L 307.507812 205.078125 C 307.683594 205.589844 307.851562 206.117188 308.007812 206.65625 C 308.121094 206.242188 308.28125 205.746094 308.492188 205.171875 L 310.226562 200.421875 L 311.585938 200.421875 L 308.632812 208.203125 Z M 312.507812 208.84375 L 313.789062 209.03125 C 313.839844 209.425781 313.984375 209.71875 314.226562 209.90625 C 314.558594 210.144531 315.007812 210.265625 315.570312 210.265625 C 316.183594 210.265625 316.65625 210.140625 316.992188 209.890625 C 317.324219 209.648438 317.546875 209.3125 317.664062 208.875 C 317.726562 208.601562 317.757812 208.042969 317.757812 207.1875 C 317.183594 207.867188 316.464844 208.203125 315.601562 208.203125 C 314.527344 208.203125 313.699219 207.820312 313.117188 207.046875 C 312.53125 206.277344 312.242188 205.351562 312.242188 204.265625 C 312.242188 203.527344 312.375 202.84375 312.648438 202.21875 C 312.917969 201.59375 313.304688 201.109375 313.804688 200.765625 C 314.3125 200.421875 314.917969 200.25 315.617188 200.25 C 316.53125 200.25 317.289062 200.621094 317.882812 201.359375 L 317.882812 200.421875 L 319.101562 200.421875 L 319.101562 207.140625 C 319.101562 208.359375 318.976562 209.21875 318.726562 209.71875 C 318.476562 210.226562 318.085938 210.628906 317.554688 210.921875 C 317.023438 211.210938 316.367188 211.359375 315.585938 211.359375 C 314.65625 211.359375 313.90625 211.148438 313.335938 210.734375 C 312.761719 210.316406 312.484375 209.6875 312.507812 208.84375 Z M 313.601562 204.171875 C 313.601562 205.195312 313.796875 205.9375 314.195312 206.40625 C 314.601562 206.875 315.109375 207.109375 315.726562 207.109375 C 316.328125 207.109375 316.835938 206.882812 317.242188 206.421875 C 317.65625 205.953125 317.867188 205.21875 317.867188 204.21875 C 317.867188 203.273438 317.652344 202.558594 317.226562 202.078125 C 316.808594 201.589844 316.304688 201.34375 315.710938 201.34375 C 315.117188 201.34375 314.617188 201.585938 314.210938 202.0625 C 313.804688 202.53125 313.601562 203.234375 313.601562 204.171875 Z M 328.039062 203.515625 L 320.929688 206.546875 L 320.929688 205.234375 L 326.554688 202.90625 L 320.929688 200.578125 L 320.929688 199.28125 L 328.039062 202.28125 Z M 288 194.625 "/>
<path style="fill-rule:nonzero;fill:rgb(87.843137%,87.843137%,87.843137%);fill-opacity:1;stroke-width:2;stroke-linecap:round;stroke-linejoin:round;stroke:rgb(0%,0%,0%);stroke-opacity:1;stroke-miterlimit:10;" d="M 355 329 C 382.614583 329 405 362.703125 405 379 C 405 406.614583 368.635417 429 355 429 C 327.385417 429 305 407.026042 305 379 C 305 351.385417 340.760417 329 355 329 Z M 355 329 " transform="matrix(0.75,0,0,0.75,-25.125,-10.875)"/>
<path style=" stroke:none;fill-rule:nonzero;fill:rgb(0%,0%,0%);fill-opacity:1;" d="M 228.828125 276.265625 L 228.828125 275.03125 L 235.9375 272.03125 L 235.9375 273.328125 L 230.296875 275.65625 L 235.9375 277.984375 L 235.9375 279.296875 Z M 237.507812 281.59375 L 238.789062 281.78125 C 238.839844 282.175781 238.984375 282.46875 239.226562 282.65625 C 239.558594 282.894531 240.007812 283.015625 240.570312 283.015625 C 241.183594 283.015625 241.65625 282.890625 241.992188 282.640625 C 242.324219 282.398438 242.546875 282.0625 242.664062 281.625 C 242.726562 281.351562 242.757812 280.792969 242.757812 279.9375 C 242.183594 280.617188 241.464844 280.953125 240.601562 280.953125 C 239.527344 280.953125 238.699219 280.570312 238.117188 279.796875 C 237.53125 279.027344 237.242188 278.101562 237.242188 277.015625 C 237.242188 276.277344 237.375 275.59375 237.648438 274.96875 C 237.917969 274.34375 238.304688 273.859375 238.804688 273.515625 C 239.3125 273.171875 239.917969 273 240.617188 273 C 241.53125 273 242.289062 273.371094 242.882812 274.109375 L 242.882812 273.171875 L 244.101562 273.171875 L 244.101562 279.890625 C 244.101562 281.109375 243.976562 281.96875 243.726562 282.46875 C 243.476562 282.976562 243.085938 283.378906 242.554688 283.671875 C 242.023438 283.960938 241.367188 284.109375 240.585938 284.109375 C 239.65625 284.109375 238.90625 283.898438 238.335938 283.484375 C 237.761719 283.066406 237.484375 282.4375 237.507812 281.59375 Z M 238.601562 276.921875 C 238.601562 277.945312 238.796875 278.6875 239.195312 279.15625 C 239.601562 279.625 240.109375 279.859375 240.726562 279.859375 C 241.328125 279.859375 241.835938 279.632812 242.242188 279.171875 C 242.65625 278.703125 242.867188 277.96875 242.867188 276.96875 C 242.867188 276.023438 242.652344 275.308594 242.226562 274.828125 C 241.808594 274.339844 241.304688 274.09375 240.710938 274.09375 C 240.117188 274.09375 239.617188 274.335938 239.210938 274.8125 C 238.804688 275.28125 238.601562 275.984375 238.601562 276.921875 Z M 253.039062 276.265625 L 245.929688 279.296875 L 245.929688 277.984375 L 251.554688 275.65625 L 245.929688 273.328125 L 245.929688 272.03125 L 253.039062 275.03125 Z M 228 267.375 "/>
<path style="fill-rule:nonzero;fill:rgb(87.843137%,87.843137%,87.843137%);fill-opacity:1;stroke-width:2;stroke-linecap:round;stroke-linejoin:round;stroke:rgb(0%,0%,0%);stroke-opacity:1;stroke-miterlimit:10;" d="M 87 234 C 114.614583 234 137 269.229167 137 284 C 137 311.614583 113.390625 334 87 334 C 59.385417 334 37 312.760417 37 284 C 37 256.385417 62.421875 234 87 234 Z M 87 234 " transform="matrix(0.75,0,0,0.75,-25.125,-10.875)"/>
<path style=" stroke:none;fill-rule:nonzero;fill:rgb(0%,0%,0%);fill-opacity:1;" d="M 20.328125 205.015625 L 20.328125 203.78125 L 27.4375 200.78125 L 27.4375 202.078125 L 21.796875 204.40625 L 27.4375 206.734375 L 27.4375 208.046875 Z M 32.132812 208.53125 L 32.320312 209.6875 C 31.945312 209.769531 31.609375 209.8125 31.320312 209.8125 C 30.839844 209.8125 30.464844 209.734375 30.195312 209.578125 C 29.933594 209.421875 29.75 209.226562 29.648438 208.984375 C 29.542969 208.734375 29.492188 208.214844 29.492188 207.421875 L 29.492188 202.953125 L 28.523438 202.953125 L 28.523438 201.921875 L 29.492188 201.921875 L 29.492188 200 L 30.804688 199.203125 L 30.804688 201.921875 L 32.132812 201.921875 L 32.132812 202.953125 L 30.804688 202.953125 L 30.804688 207.5 C 30.804688 207.875 30.824219 208.121094 30.867188 208.234375 C 30.917969 208.339844 30.996094 208.421875 31.101562 208.484375 C 31.203125 208.546875 31.351562 208.578125 31.539062 208.578125 C 31.695312 208.578125 31.890625 208.5625 32.132812 208.53125 Z M 33.425781 200.484375 L 33.425781 198.96875 L 34.738281 198.96875 L 34.738281 200.484375 Z M 33.425781 209.703125 L 33.425781 201.921875 L 34.738281 201.921875 L 34.738281 209.703125 Z M 39.632812 208.53125 L 39.820312 209.6875 C 39.445312 209.769531 39.109375 209.8125 38.820312 209.8125 C 38.339844 209.8125 37.964844 209.734375 37.695312 209.578125 C 37.433594 209.421875 37.25 209.226562 37.148438 208.984375 C 37.042969 208.734375 36.992188 208.214844 36.992188 207.421875 L 36.992188 202.953125 L 36.023438 202.953125 L 36.023438 201.921875 L 36.992188 201.921875 L 36.992188 200 L 38.304688 199.203125 L 38.304688 201.921875 L 39.632812 201.921875 L 39.632812 202.953125 L 38.304688 202.953125 L 38.304688 207.5 C 38.304688 207.875 38.324219 208.121094 38.367188 208.234375 C 38.417969 208.339844 38.496094 208.421875 38.601562 208.484375 C 38.703125 208.546875 38.851562 208.578125 39.039062 208.578125 C 39.195312 208.578125 39.390625 208.5625 39.632812 208.53125 Z M 40.878906 209.703125 L 40.878906 198.96875 L 42.207031 198.96875 L 42.207031 209.703125 Z M 49.570312 207.203125 L 50.929688 207.359375 C 50.71875 208.164062 50.324219 208.78125 49.742188 209.21875 C 49.15625 209.65625 48.414062 209.875 47.507812 209.875 C 46.371094 209.875 45.46875 209.527344 44.804688 208.828125 C 44.136719 208.132812 43.804688 207.148438 43.804688 205.875 C 43.804688 204.574219 44.140625 203.5625 44.820312 202.84375 C 45.496094 202.117188 46.371094 201.75 47.445312 201.75 C 48.484375 201.75 49.335938 202.105469 49.992188 202.8125 C 50.648438 203.523438 50.976562 204.515625 50.976562 205.796875 C 50.976562 205.882812 50.976562 206 50.976562 206.15625 L 45.164062 206.15625 C 45.214844 207.011719 45.453125 207.667969 45.882812 208.125 C 46.320312 208.574219 46.867188 208.796875 47.523438 208.796875 C 48 208.796875 48.414062 208.671875 48.757812 208.421875 C 49.101562 208.164062 49.371094 207.757812 49.570312 207.203125 Z M 45.242188 205.0625 L 49.585938 205.0625 C 49.523438 204.40625 49.355469 203.917969 49.085938 203.59375 C 48.667969 203.085938 48.125 202.828125 47.460938 202.828125 C 46.84375 202.828125 46.328125 203.03125 45.914062 203.4375 C 45.507812 203.84375 45.28125 204.386719 45.242188 205.0625 Z M 59.539062 205.015625 L 52.429688 208.046875 L 52.429688 206.734375 L 58.054688 204.40625 L 52.429688 202.078125 L 52.429688 200.78125 L 59.539062 203.78125 Z M 19.5 196.125 "/>
<path style="fill-rule:nonzero;fill:rgb(87.843137%,87.843137%,87.843137%);fill-opacity:1;stroke-width:2;stroke-linecap:round;stroke-linejoin:round;stroke:rgb(0%,0%,0%);stroke-opacity:1;stroke-miterlimit:10;" d="M 335 460 C 362.614583 460 385 480.348958 385 510 C 385 537.614583 346.145833 560 335 560 C 307.385417 560 285 529.1875 285 510 C 285 482.385417 307.369792 460 335 460 Z M 335 460 " transform="matrix(0.75,0,0,0.75,-25.125,-10.875)"/>
<path style=" stroke:none;fill-rule:nonzero;fill:rgb(0%,0%,0%);fill-opacity:1;" d="M 200.703125 374.515625 L 200.703125 373.28125 L 207.8125 370.28125 L 207.8125 371.578125 L 202.171875 373.90625 L 207.8125 376.234375 L 207.8125 377.546875 Z M 214.695312 376.359375 L 215.992188 376.515625 C 215.855469 377.414062 215.492188 378.117188 214.898438 378.625 C 214.3125 379.125 213.601562 379.375 212.757812 379.375 C 211.695312 379.375 210.839844 379.03125 210.195312 378.34375 C 209.546875 377.648438 209.226562 376.648438 209.226562 375.34375 C 209.226562 374.5 209.359375 373.765625 209.632812 373.140625 C 209.914062 372.507812 210.335938 372.03125 210.898438 371.71875 C 211.46875 371.40625 212.089844 371.25 212.757812 371.25 C 213.601562 371.25 214.292969 371.464844 214.835938 371.890625 C 215.375 372.320312 215.71875 372.921875 215.867188 373.703125 L 214.585938 373.90625 C 214.460938 373.386719 214.242188 372.996094 213.929688 372.734375 C 213.625 372.464844 213.257812 372.328125 212.820312 372.328125 C 212.152344 372.328125 211.609375 372.570312 211.195312 373.046875 C 210.777344 373.527344 210.570312 374.28125 210.570312 375.3125 C 210.570312 376.355469 210.765625 377.117188 211.164062 377.59375 C 211.570312 378.0625 212.09375 378.296875 212.742188 378.296875 C 213.261719 378.296875 213.695312 378.140625 214.039062 377.828125 C 214.382812 377.507812 214.601562 377.015625 214.695312 376.359375 Z M 217.132812 369.984375 L 217.132812 368.46875 L 218.445312 368.46875 L 218.445312 369.984375 Z M 217.132812 379.203125 L 217.132812 371.421875 L 218.445312 371.421875 L 218.445312 379.203125 Z M 220.4375 379.203125 L 220.4375 371.421875 L 221.625 371.421875 L 221.625 372.609375 C 221.925781 372.058594 222.207031 371.695312 222.46875 371.515625 C 222.726562 371.339844 223.007812 371.25 223.3125 371.25 C 223.757812 371.25 224.210938 371.390625 224.671875 371.671875 L 224.21875 372.890625 C 223.894531 372.703125 223.570312 372.609375 223.25 372.609375 C 222.957031 372.609375 222.695312 372.699219 222.46875 372.875 C 222.238281 373.042969 222.078125 373.28125 221.984375 373.59375 C 221.835938 374.0625 221.765625 374.574219 221.765625 375.125 L 221.765625 379.203125 Z M 230.523438 376.359375 L 231.820312 376.515625 C 231.683594 377.414062 231.320312 378.117188 230.726562 378.625 C 230.140625 379.125 229.429688 379.375 228.585938 379.375 C 227.523438 379.375 226.667969 379.03125 226.023438 378.34375 C 225.375 377.648438 225.054688 376.648438 225.054688 375.34375 C 225.054688 374.5 225.1875 373.765625 225.460938 373.140625 C 225.742188 372.507812 226.164062 372.03125 226.726562 371.71875 C 227.296875 371.40625 227.917969 371.25 228.585938 371.25 C 229.429688 371.25 230.121094 371.464844 230.664062 371.890625 C 231.203125 372.320312 231.546875 372.921875 231.695312 373.703125 L 230.414062 373.90625 C 230.289062 373.386719 230.070312 372.996094 229.757812 372.734375 C 229.453125 372.464844 229.085938 372.328125 228.648438 372.328125 C 227.980469 372.328125 227.4375 372.570312 227.023438 373.046875 C 226.605469 373.527344 226.398438 374.28125 226.398438 375.3125 C 226.398438 376.355469 226.59375 377.117188 226.992188 377.59375 C 227.398438 378.0625 227.921875 378.296875 228.570312 378.296875 C 229.089844 378.296875 229.523438 378.140625 229.867188 377.828125 C 230.210938 377.507812 230.429688 377.015625 230.523438 376.359375 Z M 232.914062 379.203125 L 232.914062 368.46875 L 234.242188 368.46875 L 234.242188 379.203125 Z M 241.609375 376.703125 L 242.96875 376.859375 C 242.757812 377.664062 242.363281 378.28125 241.78125 378.71875 C 241.195312 379.15625 240.453125 379.375 239.546875 379.375 C 238.410156 379.375 237.507812 379.027344 236.84375 378.328125 C 236.175781 377.632812 235.84375 376.648438 235.84375 375.375 C 235.84375 374.074219 236.179688 373.0625 236.859375 372.34375 C 237.535156 371.617188 238.410156 371.25 239.484375 371.25 C 240.523438 371.25 241.375 371.605469 242.03125 372.3125 C 242.6875 373.023438 243.015625 374.015625 243.015625 375.296875 C 243.015625 375.382812 243.015625 375.5 243.015625 375.65625 L 237.203125 375.65625 C 237.253906 376.511719 237.492188 377.167969 237.921875 377.625 C 238.359375 378.074219 238.90625 378.296875 239.5625 378.296875 C 240.039062 378.296875 240.453125 378.171875 240.796875 377.921875 C 241.140625 377.664062 241.410156 377.257812 241.609375 376.703125 Z M 237.28125 374.5625 L 241.625 374.5625 C 241.5625 373.90625 241.394531 373.417969 241.125 373.09375 C 240.707031 372.585938 240.164062 372.328125 239.5 372.328125 C 238.882812 372.328125 238.367188 372.53125 237.953125 372.9375 C 237.546875 373.34375 237.320312 373.886719 237.28125 374.5625 Z M 251.574219 374.515625 L 244.464844 377.546875 L 244.464844 376.234375 L 250.089844 373.90625 L 244.464844 371.578125 L 244.464844 370.28125 L 251.574219 373.28125 Z M 199.875 365.625 "/>
<path style="fill-rule:nonzero;fill:rgb(87.843137%,87.843137%,87.843137%);fill-opacity:1;stroke-width:2;stroke-linecap:round;stroke-linejoin:round;stroke:rgb(0%,0%,0%);stroke-opacity:1;stroke-miterlimit:10;" d="M 468 436 C 495.614583 436 518 453.75 518 486 C 518 513.614583 484.302083 536 468 536 C 440.385417 536 418 519.026042 418 486 C 418 458.385417 445.744792 436 468 436 Z M 468 436 " transform="matrix(0.75,0,0,0.75,-25.125,-10.875)"/>
<path style=" stroke:none;fill-rule:nonzero;fill:rgb(0%,0%,0%);fill-opacity:1;" d="M 305.328125 356.515625 L 305.328125 355.28125 L 312.4375 352.28125 L 312.4375 353.578125 L 306.796875 355.90625 L 312.4375 358.234375 L 312.4375 359.546875 Z M 317.132812 360.03125 L 317.320312 361.1875 C 316.945312 361.269531 316.609375 361.3125 316.320312 361.3125 C 315.839844 361.3125 315.464844 361.234375 315.195312 361.078125 C 314.933594 360.921875 314.75 360.726562 314.648438 360.484375 C 314.542969 360.234375 314.492188 359.714844 314.492188 358.921875 L 314.492188 354.453125 L 313.523438 354.453125 L 313.523438 353.421875 L 314.492188 353.421875 L 314.492188 351.5 L 315.804688 350.703125 L 315.804688 353.421875 L 317.132812 353.421875 L 317.132812 354.453125 L 315.804688 354.453125 L 315.804688 359 C 315.804688 359.375 315.824219 359.621094 315.867188 359.734375 C 315.917969 359.839844 315.996094 359.921875 316.101562 359.984375 C 316.203125 360.046875 316.351562 360.078125 316.539062 360.078125 C 316.695312 360.078125 316.890625 360.0625 317.132812 360.03125 Z M 323.738281 358.703125 L 325.097656 358.859375 C 324.886719 359.664062 324.492188 360.28125 323.910156 360.71875 C 323.324219 361.15625 322.582031 361.375 321.675781 361.375 C 320.539062 361.375 319.636719 361.027344 318.972656 360.328125 C 318.304688 359.632812 317.972656 358.648438 317.972656 357.375 C 317.972656 356.074219 318.308594 355.0625 318.988281 354.34375 C 319.664062 353.617188 320.539062 353.25 321.613281 353.25 C 322.652344 353.25 323.503906 353.605469 324.160156 354.3125 C 324.816406 355.023438 325.144531 356.015625 325.144531 357.296875 C 325.144531 357.382812 325.144531 357.5 325.144531 357.65625 L 319.332031 357.65625 C 319.382812 358.511719 319.621094 359.167969 320.050781 359.625 C 320.488281 360.074219 321.035156 360.296875 321.691406 360.296875 C 322.167969 360.296875 322.582031 360.171875 322.925781 359.921875 C 323.269531 359.664062 323.539062 359.257812 323.738281 358.703125 Z M 319.410156 356.5625 L 323.753906 356.5625 C 323.691406 355.90625 323.523438 355.417969 323.253906 355.09375 C 322.835938 354.585938 322.292969 354.328125 321.628906 354.328125 C 321.011719 354.328125 320.496094 354.53125 320.082031 354.9375 C 319.675781 355.34375 319.449219 355.886719 319.410156 356.5625 Z M 325.878906 361.203125 L 328.722656 357.15625 L 326.097656 353.421875 L 327.738281 353.421875 L 328.941406 355.25 C 329.160156 355.59375 329.335938 355.886719 329.472656 356.125 C 329.691406 355.804688 329.886719 355.515625 330.066406 355.265625 L 331.378906 353.421875 L 332.957031 353.421875 L 330.269531 357.09375 L 333.160156 361.203125 L 331.535156 361.203125 L 329.941406 358.78125 L 329.519531 358.140625 L 327.472656 361.203125 Z M 337.144531 360.03125 L 337.332031 361.1875 C 336.957031 361.269531 336.621094 361.3125 336.332031 361.3125 C 335.851562 361.3125 335.476562 361.234375 335.207031 361.078125 C 334.945312 360.921875 334.761719 360.726562 334.660156 360.484375 C 334.554688 360.234375 334.503906 359.714844 334.503906 358.921875 L 334.503906 354.453125 L 333.535156 354.453125 L 333.535156 353.421875 L 334.503906 353.421875 L 334.503906 351.5 L 335.816406 350.703125 L 335.816406 353.421875 L 337.144531 353.421875 L 337.144531 354.453125 L 335.816406 354.453125 L 335.816406 359 C 335.816406 359.375 335.835938 359.621094 335.878906 359.734375 C 335.929688 359.839844 336.007812 359.921875 336.113281 359.984375 C 336.214844 360.046875 336.363281 360.078125 336.550781 360.078125 C 336.707031 360.078125 336.902344 360.0625 337.144531 360.03125 Z M 345.375 356.515625 L 338.265625 359.546875 L 338.265625 358.234375 L 343.890625 355.90625 L 338.265625 353.578125 L 338.265625 352.28125 L 345.375 355.28125 Z M 304.5 347.625 "/>
<path style="fill-rule:nonzero;fill:rgb(87.843137%,87.843137%,87.843137%);fill-opacity:1;stroke-width:2;stroke-linecap:round;stroke-linejoin:round;stroke:rgb(0%,0%,0%);stroke-opacity:1;stroke-miterlimit:10;" d="M 208 434 C 235.614583 434 258 464.765625 258 484 C 258 511.614583 228.223958 534 208 534 C 180.385417 534 158 500.348958 158 484 C 158 456.385417 170.395833 434 208 434 Z M 208 434 " transform="matrix(0.75,0,0,0.75,-25.125,-10.875)"/>
<path style=" stroke:none;fill-rule:nonzero;fill:rgb(0%,0%,0%);fill-opacity:1;" d="M 105.453125 355.015625 L 105.453125 353.78125 L 112.5625 350.78125 L 112.5625 352.078125 L 106.921875 354.40625 L 112.5625 356.734375 L 112.5625 358.046875 Z M 119.445312 356.859375 L 120.742188 357.015625 C 120.605469 357.914062 120.242188 358.617188 119.648438 359.125 C 119.0625 359.625 118.351562 359.875 117.507812 359.875 C 116.445312 359.875 115.589844 359.53125 114.945312 358.84375 C 114.296875 358.148438 113.976562 357.148438 113.976562 355.84375 C 113.976562 355 114.109375 354.265625 114.382812 353.640625 C 114.664062 353.007812 115.085938 352.53125 115.648438 352.21875 C 116.21875 351.90625 116.839844 351.75 117.507812 351.75 C 118.351562 351.75 119.042969 351.964844 119.585938 352.390625 C 120.125 352.820312 120.46875 353.421875 120.617188 354.203125 L 119.335938 354.40625 C 119.210938 353.886719 118.992188 353.496094 118.679688 353.234375 C 118.375 352.964844 118.007812 352.828125 117.570312 352.828125 C 116.902344 352.828125 116.359375 353.070312 115.945312 353.546875 C 115.527344 354.027344 115.320312 354.78125 115.320312 355.8125 C 115.320312 356.855469 115.515625 357.617188 115.914062 358.09375 C 116.320312 358.5625 116.84375 358.796875 117.492188 358.796875 C 118.011719 358.796875 118.445312 358.640625 118.789062 358.328125 C 119.132812 358.007812 119.351562 357.515625 119.445312 356.859375 Z M 121.882812 350.484375 L 121.882812 348.96875 L 123.195312 348.96875 L 123.195312 350.484375 Z M 121.882812 359.703125 L 121.882812 351.921875 L 123.195312 351.921875 L 123.195312 359.703125 Z M 125.1875 359.703125 L 125.1875 351.921875 L 126.375 351.921875 L 126.375 353.109375 C 126.675781 352.558594 126.957031 352.195312 127.21875 352.015625 C 127.476562 351.839844 127.757812 351.75 128.0625 351.75 C 128.507812 351.75 128.960938 351.890625 129.421875 352.171875 L 128.96875 353.390625 C 128.644531 353.203125 128.320312 353.109375 128 353.109375 C 127.707031 353.109375 127.445312 353.199219 127.21875 353.375 C 126.988281 353.542969 126.828125 353.78125 126.734375 354.09375 C 126.585938 354.5625 126.515625 355.074219 126.515625 355.625 L 126.515625 359.703125 Z M 135.273438 356.859375 L 136.570312 357.015625 C 136.433594 357.914062 136.070312 358.617188 135.476562 359.125 C 134.890625 359.625 134.179688 359.875 133.335938 359.875 C 132.273438 359.875 131.417969 359.53125 130.773438 358.84375 C 130.125 358.148438 129.804688 357.148438 129.804688 355.84375 C 129.804688 355 129.9375 354.265625 130.210938 353.640625 C 130.492188 353.007812 130.914062 352.53125 131.476562 352.21875 C 132.046875 351.90625 132.667969 351.75 133.335938 351.75 C 134.179688 351.75 134.871094 351.964844 135.414062 352.390625 C 135.953125 352.820312 136.296875 353.421875 136.445312 354.203125 L 135.164062 354.40625 C 135.039062 353.886719 134.820312 353.496094 134.507812 353.234375 C 134.203125 352.964844 133.835938 352.828125 133.398438 352.828125 C 132.730469 352.828125 132.1875 353.070312 131.773438 353.546875 C 131.355469 354.027344 131.148438 354.78125 131.148438 355.8125 C 131.148438 356.855469 131.34375 357.617188 131.742188 358.09375 C 132.148438 358.5625 132.671875 358.796875 133.320312 358.796875 C 133.839844 358.796875 134.273438 358.640625 134.617188 358.328125 C 134.960938 358.007812 135.179688 357.515625 135.273438 356.859375 Z M 137.664062 359.703125 L 137.664062 348.96875 L 138.992188 348.96875 L 138.992188 359.703125 Z M 146.359375 357.203125 L 147.71875 357.359375 C 147.507812 358.164062 147.113281 358.78125 146.53125 359.21875 C 145.945312 359.65625 145.203125 359.875 144.296875 359.875 C 143.160156 359.875 142.257812 359.527344 141.59375 358.828125 C 140.925781 358.132812 140.59375 357.148438 140.59375 355.875 C 140.59375 354.574219 140.929688 353.5625 141.609375 352.84375 C 142.285156 352.117188 143.160156 351.75 144.234375 351.75 C 145.273438 351.75 146.125 352.105469 146.78125 352.8125 C 147.4375 353.523438 147.765625 354.515625 147.765625 355.796875 C 147.765625 355.882812 147.765625 356 147.765625 356.15625 L 141.953125 356.15625 C 142.003906 357.011719 142.242188 357.667969 142.671875 358.125 C 143.109375 358.574219 143.65625 358.796875 144.3125 358.796875 C 144.789062 358.796875 145.203125 358.671875 145.546875 358.421875 C 145.890625 358.164062 146.160156 357.757812 146.359375 357.203125 Z M 142.03125 355.0625 L 146.375 355.0625 C 146.3125 354.40625 146.144531 353.917969 145.875 353.59375 C 145.457031 353.085938 144.914062 352.828125 144.25 352.828125 C 143.632812 352.828125 143.117188 353.03125 142.703125 353.4375 C 142.296875 353.84375 142.070312 354.386719 142.03125 355.0625 Z M 156.324219 355.015625 L 149.214844 358.046875 L 149.214844 356.734375 L 154.839844 354.40625 L 149.214844 352.078125 L 149.214844 350.78125 L 156.324219 353.78125 Z M 104.625 346.125 "/>
<path style="fill-rule:nonzero;fill:rgb(87.843137%,87.843137%,87.843137%);fill-opacity:1;stroke-width:2;stroke-linecap:round;stroke-linejoin:round;stroke:rgb(0%,0%,0%);stroke-opacity:1;stroke-miterlimit:10;" d="M 607 333 C 634.614583 333 657 374.286458 657 383 C 657 410.614583 632.354167 433 607 433 C 579.385417 433 557 399.364583 557 383 C 557 355.385417 595.932292 333 607 333 Z M 607 333 " transform="matrix(0.75,0,0,0.75,-25.125,-10.875)"/>
<path style=" stroke:none;fill-rule:nonzero;fill:rgb(0%,0%,0%);fill-opacity:1;" d="M 407.328125 279.265625 L 407.328125 278.03125 L 414.4375 275.03125 L 414.4375 276.328125 L 408.796875 278.65625 L 414.4375 280.984375 L 414.4375 282.296875 Z M 416.242188 286.9375 L 416.242188 276.171875 L 417.445312 276.171875 L 417.445312 277.1875 C 417.726562 276.792969 418.042969 276.496094 418.398438 276.296875 C 418.761719 276.101562 419.199219 276 419.710938 276 C 420.367188 276 420.949219 276.171875 421.460938 276.515625 C 421.96875 276.859375 422.351562 277.34375 422.601562 277.96875 C 422.859375 278.585938 422.992188 279.261719 422.992188 280 C 422.992188 280.804688 422.851562 281.523438 422.570312 282.15625 C 422.289062 282.792969 421.871094 283.28125 421.320312 283.625 C 420.777344 283.957031 420.203125 284.125 419.601562 284.125 C 419.164062 284.125 418.765625 284.035156 418.414062 283.859375 C 418.070312 283.671875 417.789062 283.433594 417.570312 283.140625 L 417.570312 286.9375 Z M 417.445312 280.109375 C 417.445312 281.109375 417.648438 281.851562 418.054688 282.328125 C 418.460938 282.808594 418.949219 283.046875 419.523438 283.046875 C 420.105469 283.046875 420.605469 282.804688 421.023438 282.3125 C 421.4375 281.8125 421.648438 281.042969 421.648438 280 C 421.648438 279.011719 421.445312 278.273438 421.039062 277.78125 C 420.632812 277.28125 420.148438 277.03125 419.585938 277.03125 C 419.023438 277.03125 418.523438 277.296875 418.085938 277.828125 C 417.65625 278.351562 417.445312 279.109375 417.445312 280.109375 Z M 429.664062 283 C 429.171875 283.40625 428.703125 283.699219 428.257812 283.875 C 427.808594 284.039062 427.324219 284.125 426.804688 284.125 C 425.949219 284.125 425.292969 283.917969 424.835938 283.5 C 424.375 283.085938 424.148438 282.554688 424.148438 281.90625 C 424.148438 281.523438 424.230469 281.171875 424.398438 280.859375 C 424.574219 280.546875 424.804688 280.296875 425.085938 280.109375 C 425.367188 279.914062 425.683594 279.765625 426.039062 279.671875 C 426.289062 279.601562 426.679688 279.53125 427.210938 279.46875 C 428.273438 279.34375 429.054688 279.195312 429.554688 279.015625 C 429.5625 278.839844 429.570312 278.726562 429.570312 278.671875 C 429.570312 278.132812 429.445312 277.75 429.195312 277.53125 C 428.851562 277.242188 428.351562 277.09375 427.695312 277.09375 C 427.070312 277.09375 426.605469 277.203125 426.304688 277.421875 C 426.011719 277.632812 425.796875 278.011719 425.664062 278.5625 L 424.367188 278.390625 C 424.480469 277.839844 424.671875 277.398438 424.945312 277.0625 C 425.214844 276.71875 425.605469 276.460938 426.117188 276.28125 C 426.625 276.09375 427.214844 276 427.882812 276 C 428.546875 276 429.085938 276.078125 429.492188 276.234375 C 429.90625 276.390625 430.214844 276.589844 430.414062 276.828125 C 430.609375 277.058594 430.746094 277.355469 430.820312 277.71875 C 430.859375 277.949219 430.882812 278.355469 430.882812 278.9375 L 430.882812 280.6875 C 430.882812 281.917969 430.90625 282.695312 430.960938 283.015625 C 431.023438 283.339844 431.136719 283.652344 431.304688 283.953125 L 429.929688 283.953125 C 429.792969 283.683594 429.703125 283.367188 429.664062 283 Z M 429.554688 280.046875 C 429.074219 280.246094 428.355469 280.414062 427.398438 280.546875 C 426.855469 280.632812 426.46875 280.71875 426.242188 280.8125 C 426.023438 280.90625 425.851562 281.046875 425.726562 281.234375 C 425.609375 281.421875 425.554688 281.632812 425.554688 281.859375 C 425.554688 282.214844 425.683594 282.511719 425.945312 282.75 C 426.214844 282.980469 426.605469 283.09375 427.117188 283.09375 C 427.625 283.09375 428.078125 282.984375 428.476562 282.765625 C 428.871094 282.539062 429.164062 282.230469 429.351562 281.84375 C 429.484375 281.554688 429.554688 281.117188 429.554688 280.53125 Z M 435.820312 282.78125 L 436.007812 283.9375 C 435.632812 284.019531 435.296875 284.0625 435.007812 284.0625 C 434.527344 284.0625 434.152344 283.984375 433.882812 283.828125 C 433.621094 283.671875 433.4375 283.476562 433.335938 283.234375 C 433.230469 282.984375 433.179688 282.464844 433.179688 281.671875 L 433.179688 277.203125 L 432.210938 277.203125 L 432.210938 276.171875 L 433.179688 276.171875 L 433.179688 274.25 L 434.492188 273.453125 L 434.492188 276.171875 L 435.820312 276.171875 L 435.820312 277.203125 L 434.492188 277.203125 L 434.492188 281.75 C 434.492188 282.125 434.511719 282.371094 434.554688 282.484375 C 434.605469 282.589844 434.683594 282.671875 434.789062 282.734375 C 434.890625 282.796875 435.039062 282.828125 435.226562 282.828125 C 435.382812 282.828125 435.578125 282.8125 435.820312 282.78125 Z M 437.097656 283.953125 L 437.097656 273.21875 L 438.425781 273.21875 L 438.425781 277.0625 C 439.039062 276.355469 439.816406 276 440.753906 276 C 441.324219 276 441.824219 276.117188 442.253906 276.34375 C 442.679688 276.574219 442.980469 276.886719 443.160156 277.28125 C 443.347656 277.679688 443.441406 278.261719 443.441406 279.03125 L 443.441406 283.953125 L 442.113281 283.953125 L 442.113281 279.03125 C 442.113281 278.367188 441.972656 277.886719 441.691406 277.59375 C 441.410156 277.292969 441.003906 277.140625 440.472656 277.140625 C 440.085938 277.140625 439.722656 277.242188 439.378906 277.4375 C 439.035156 277.636719 438.789062 277.914062 438.644531 278.265625 C 438.496094 278.609375 438.425781 279.089844 438.425781 279.703125 L 438.425781 283.953125 Z M 452.390625 279.265625 L 445.28125 282.296875 L 445.28125 280.984375 L 450.90625 278.65625 L 445.28125 276.328125 L 445.28125 275.03125 L 452.390625 278.03125 Z M 406.5 270.375 "/>
<path style="fill:none;stroke-width:2;stroke-linecap:round;stroke-linejoin:round;stroke:rgb(0%,0%,0%);stroke-opacity:1;stroke-miterlimit:10;" d="M 285 103 C 251.625 120.208333 238.526042 126.963542 221 136 " transform="matrix(0.75,0,0,0.75,-25.125,-10.875)"/>
<path style="fill:none;stroke-width:2;stroke-linecap:round;stroke-linejoin:round;stroke:rgb(0%,0%,0%);stroke-opacity:1;stroke-miterlimit:10;" d="M 357 94 C 379.786458 109.953125 394.770833 120.4375 407 129 " transform="matrix(0.75,0,0,0.75,-25.125,-10.875)"/>
<path style="fill:none;stroke-width:2;stroke-linecap:round;stroke-linejoin:round;stroke:rgb(0%,0%,0%);stroke-opacity:1;stroke-miterlimit:10;" d="M 147 199 C 126.317708 220.713542 127.244792 219.739583 107 241 " transform="matrix(0.75,0,0,0.75,-25.125,-10.875)"/>
<path style="fill:none;stroke-width:2;stroke-linecap:round;stroke-linejoin:round;stroke:rgb(0%,0%,0%);stroke-opacity:1;stroke-miterlimit:10;" d="M 446 203 C 445.083333 216.713542 444.807292 220.901042 444 233 " transform="matrix(0.75,0,0,0.75,-25.125,-10.875)"/>
<path style="fill:none;stroke-width:2;stroke-linecap:round;stroke-linejoin:round;stroke:rgb(0%,0%,0%);stroke-opacity:1;stroke-miterlimit:10;" d="M 410 316 C 399.151042 328.260417 397.171875 330.505208 387 342 " transform="matrix(0.75,0,0,0.75,-25.125,-10.875)"/>
<path style="fill:none;stroke-width:2;stroke-linecap:round;stroke-linejoin:round;stroke:rgb(0%,0%,0%);stroke-opacity:1;stroke-miterlimit:10;" d="M 489 302 C 517.625 322.338542 522.442708 325.760417 565 356 " transform="matrix(0.75,0,0,0.75,-25.125,-10.875)"/>
<path style="fill:none;stroke-width:2;stroke-linecap:round;stroke-linejoin:round;stroke:rgb(0%,0%,0%);stroke-opacity:1;stroke-miterlimit:10;" d="M 309 404 C 260.229167 430.359375 250.015625 435.885417 235 444 " transform="matrix(0.75,0,0,0.75,-25.125,-10.875)"/>
<path style="fill:none;stroke-width:2;stroke-linecap:round;stroke-linejoin:round;stroke:rgb(0%,0%,0%);stroke-opacity:1;stroke-miterlimit:10;" d="M 347 428 C 342.619792 444.427083 343.859375 439.786458 339 458 " transform="matrix(0.75,0,0,0.75,-25.125,-10.875)"/>
<path style="fill:none;stroke-width:2;stroke-linecap:round;stroke-linejoin:round;stroke:rgb(0%,0%,0%);stroke-opacity:1;stroke-miterlimit:10;" d="M 391 405 C 415.125 434.692708 420.744792 441.609375 430 453 " transform="matrix(0.75,0,0,0.75,-25.125,-10.875)"/>
</g>
</svg>
