<svg version="1.1" xmlns="http://www.w3.org/2000/svg" viewBox="0 0 976.9980163574219 476.50011444091786" width="976.9980163574219" height="476.50011444091786">
  <!-- svg-source:excalidraw -->
  
  <defs>
    <style class="style-fonts">
      @font-face {
        font-family: "Virgil";
        src: url("https://excalidraw.com/Virgil.woff2");
      }
      @font-face {
        font-family: "Cascadia";
        src: url("https://excalidraw.com/Cascadia.woff2");
      }
    </style>
  </defs>
  <g stroke-linecap="round" transform="translate(587.6001281738281 145.0999984741211) rotate(0 79 36)"><path d="M-0.64 -1.13 C37.16 -1.22, 75.07 1.43, 157.94 0.8 M-0.77 0.23 C39.2 -0.62, 77.48 -0.21, 158.46 0.34 M156.19 -0.72 C159.01 24.57, 159.28 45.63, 158.41 72.89 M158.91 0.95 C157.12 17.99, 157.08 36.67, 158.39 72.21 M159.88 70.43 C93.5 71.9, 31.86 68.86, -0.92 73.16 M158.04 71.8 C112.22 71.66, 67.87 71.39, -0.63 71.12 M0.42 73.68 C-1.72 55.16, -0.71 34.77, 0.61 1.13 M-0.7 71.47 C-1.17 57.9, 0.13 41.72, -0.28 -0.79" stroke="#000000" stroke-width="1" fill="none"></path></g><g transform="translate(639.7621307373047 163.5999984741211) rotate(0 26.837997436523438 17.5)"><text x="26.837997436523438" y="0" font-family="Virgil, Segoe UI Emoji" font-size="28px" fill="#000000" text-anchor="middle" style="white-space: pre;" direction="ltr" dominant-baseline="text-before-edge">JVM</text></g><g stroke-linecap="round" transform="translate(586.8001403808594 221.60001373291016) rotate(0 81 40)"><path d="M-1.31 0.51 C46.61 0.14, 96.17 -1.8, 162.84 1.6 M0.08 -0.76 C43.19 0.93, 85.76 0.53, 161.16 0.24 M161.62 0.52 C162.86 29.23, 160.96 56.47, 160.91 78.59 M161.57 0.42 C162.51 30.05, 162.08 59.13, 162.32 80.59 M163.66 78.71 C120.28 81.07, 75.25 78.97, -0.02 79.18 M162.38 80.87 C100.88 79.77, 41.47 79.47, 0.88 80.41 M-1.92 81.66 C1.41 50.44, 0.12 19.05, 0.96 -0.89 M0.29 79.95 C1.3 55.97, 0.47 30.22, -0.22 0.98" stroke="#000000" stroke-width="1" fill="none"></path></g><g transform="translate(604.2121734619141 226.60001373291016) rotate(0 63.58796691894531 35)"><text x="63.58796691894531" y="0" font-family="Virgil, Segoe UI Emoji" font-size="28px" fill="#000000" text-anchor="middle" style="white-space: pre;" direction="ltr" dominant-baseline="text-before-edge">Standard</text><text x="63.58796691894531" y="35" font-family="Virgil, Segoe UI Emoji" font-size="28px" fill="#000000" text-anchor="middle" style="white-space: pre;" direction="ltr" dominant-baseline="text-before-edge">Library</text></g><g stroke-linecap="round" transform="translate(526.0001525878906 81.70000457763672) rotate(0 139.19998168945312 118.79996490478516)"><path d="M-0.81 -1.36 C60.47 0.12, 118.72 -0.92, 278.64 0.46 M-0.32 0.54 C57.93 0.13, 115.8 -0.59, 278.01 -0.48 M278.53 -1.13 C278.4 88.6, 278.3 175.4, 278.67 238.26 M278.4 -0.34 C279.71 56.24, 278.76 113.16, 278.15 237.7 M277.11 238.04 C205.4 238.43, 134.17 237.85, -0.28 236.97 M278.04 238.13 C212.54 237.58, 146.28 236.22, 0.36 237.93 M0.76 238.66 C1.09 160.1, 0.44 86.36, 0.85 -0.03 M0.05 238.39 C0.92 170.42, -0.43 101.66, -0.38 0.66" stroke="#000000" stroke-width="1" fill="none"></path></g><g transform="translate(536.4001770019531 87.29999542236328) rotate(0 27.803993225097656 17.5)"><text x="0" y="0" font-family="Virgil, Segoe UI Emoji" font-size="28px" fill="#000000" text-anchor="start" style="white-space: pre;" direction="ltr" dominant-baseline="text-before-edge">JRE</text></g><g stroke-linecap="round" transform="translate(137.20010375976562 59.300025939941406) rotate(0 350.4000244140625 203.60004425048822)"><path d="M0.63 0.53 C210.34 0.16, 421.65 0.56, 700.86 0.33 M-0.22 -0.32 C274.07 1.71, 548.78 2.09, 701.19 -0.11 M700.15 0.4 C699.01 130.87, 700.77 261.49, 699.82 407.49 M701.14 0.39 C699.62 99.28, 700.25 198.41, 700.71 407.7 M700.66 407.48 C479.31 408.92, 257.79 409.11, -0.34 406.51 M700.49 407.31 C450.06 407.53, 198.85 407.41, 0.39 406.95 M-0.62 406.23 C0.39 285.97, -0.36 166.17, -0.7 0.49 M-0.28 406.87 C-1.24 304.14, -1.45 200.72, 0.01 -0.39" stroke="#000000" stroke-width="1" fill="none"></path></g><g transform="translate(158.00003051757812 76.10001373291016) rotate(0 28.37799072265625 17.5)"><text x="0" y="0" font-family="Virgil, Segoe UI Emoji" font-size="28px" fill="#000000" text-anchor="start" style="white-space: pre;" direction="ltr" dominant-baseline="text-before-edge">JDK</text></g><g stroke-linecap="round" transform="translate(249.60000610351562 74.49991607666016) rotate(0 79 36)"><path d="M1.56 0 C34.77 -0.84, 66.33 -0.77, 156.45 -0.38 M-0.07 -0.88 C60.61 -0.27, 119.98 0.74, 158.76 -0.39 M159.92 0.02 C159.46 16.44, 157.18 31.23, 156.42 71.34 M157.25 0.37 C157.99 16.15, 157.9 30.6, 157.28 72.45 M156.23 72.83 C126.28 69.99, 90.86 71.63, 1.84 72.52 M157.03 72.31 C111.55 71.33, 65.26 71.81, -0.64 71.73 M-1.3 71.97 C2.09 50.17, -0.91 28.81, -0.7 -0.89 M0.91 72.5 C0.56 57.21, -0.94 41.36, 0.4 0.31" stroke="#000000" stroke-width="1" fill="none"></path></g><g transform="translate(275.6380310058594 92.99991607666016) rotate(0 52.96197509765625 17.5)"><text x="52.96197509765625" y="0" font-family="Virgil, Segoe UI Emoji" font-size="28px" fill="#000000" text-anchor="middle" style="white-space: pre;" direction="ltr" dominant-baseline="text-before-edge">Compiler</text></g><g stroke-linecap="round" transform="translate(249.80001831054688 154.49996185302734) rotate(0 79 36)"><path d="M1.4 -0.24 C51.89 1.79, 100.58 1.48, 158.54 -0.93 M-0.93 0.22 C43.36 0.61, 88.11 1.33, 157.96 0.4 M158.12 0.2 C160.51 25.04, 159 49.18, 158.37 72.08 M157.97 -0.18 C158.24 27.1, 157.8 53.88, 157.69 71.12 M159.91 70.11 C109.05 70.29, 63.15 71.49, 1.26 70.67 M157.4 72.64 C111.1 71.41, 65.4 72.67, 0.91 72.89 M0.48 73.07 C-1.35 47.5, 0.97 21.16, -0.15 -0.32 M-0.3 72.41 C-0.11 42.54, -0.13 14.8, -0.98 0.76" stroke="#000000" stroke-width="1" fill="none"></path></g><g transform="translate(267.45203399658203 172.99996185302734) rotate(0 61.347984313964844 17.5)"><text x="61.347984313964844" y="0" font-family="Virgil, Segoe UI Emoji" font-size="28px" fill="#000000" text-anchor="middle" style="white-space: pre;" direction="ltr" dominant-baseline="text-before-edge">Debugger</text></g><g stroke-linecap="round" transform="translate(252.00009155273438 235.0999984741211) rotate(0 79 36)"><path d="M-1.28 1.56 C39.79 1.55, 84.99 0.03, 158.08 0.9 M-0.01 -0.81 C48.45 -1.4, 95.55 -0.67, 158.1 -0.28 M158.99 -1.43 C156.92 29.11, 159.57 53.81, 159.77 71.32 M157.18 -0.26 C158.1 23.99, 156.58 47.1, 157.48 71.04 M156.61 71.99 C124.31 69.26, 88.11 71.26, 1.16 73.64 M158.12 72.77 C124.13 72.78, 91.54 74.2, -0.01 72.33 M-0.72 73.15 C1.12 42.23, -1.01 16.69, -1.62 -1.03 M-0.24 72.48 C-0.74 47.76, -0.6 23.65, 0.94 -0.11" stroke="#000000" stroke-width="1" fill="none"></path></g><g transform="translate(261.4481201171875 253.5999984741211) rotate(0 69.55197143554688 17.5)"><text x="69.55197143554688" y="0" font-family="Virgil, Segoe UI Emoji" font-size="28px" fill="#000000" text-anchor="middle" style="white-space: pre;" direction="ltr" dominant-baseline="text-before-edge">Decompiler</text></g><g stroke-linecap="round" transform="translate(253.80007934570312 319.2999496459961) rotate(0 79 36)"><path d="M-1.93 -1.56 C31.39 -0.39, 63.75 0.81, 159.41 -1.78 M0.82 -0.9 C50.55 -0.06, 99.78 -0.15, 157.36 -0.57 M158.66 1.76 C158.98 23.57, 157.9 44.35, 159.25 70.17 M157.49 0.38 C158.88 18.4, 157.97 37.37, 157.74 72.1 M157.78 72.54 C113.37 71.69, 68.13 72.88, -0.68 73 M158.78 72.31 C95.85 72.94, 30.86 72.19, 0.35 71.08 M1.36 73.17 C0.97 54.84, 0.18 32.06, -1.54 0.38 M-0.56 72.7 C-0.9 49.45, 0.84 26.46, 0.01 0.53" stroke="#000000" stroke-width="1" fill="none"></path></g><g transform="translate(298.66809844970703 337.7999496459961) rotate(0 34.131980895996094 17.5)"><text x="34.131980895996094" y="0" font-family="Virgil, Segoe UI Emoji" font-size="28px" fill="#000000" text-anchor="middle" style="white-space: pre;" direction="ltr" dominant-baseline="text-before-edge">jshell</text></g><g transform="translate(264.4000549316406 408.0999984741211) rotate(0 41.803985595703125 17.5)"><text x="0" y="0" font-family="Virgil, Segoe UI Emoji" font-size="28px" fill="#000000" text-anchor="start" style="white-space: pre;" direction="ltr" dominant-baseline="text-before-edge">more...</text></g><g transform="translate(10 10.5) rotate(0 151.29794311523438 17.5)"><text x="0" y="0" font-family="Virgil, Segoe UI Emoji" font-size="28px" fill="#c92a2a" text-anchor="start" style="white-space: pre;" direction="ltr" dominant-baseline="text-before-edge">Java Development Kit</text></g><g transform="translate(453.9021301269531 10) rotate(0 177.9959259033203 17.5)"><text x="0" y="0" font-family="Virgil, Segoe UI Emoji" font-size="28px" fill="#c92a2a" text-anchor="start" style="white-space: pre;" direction="ltr" dominant-baseline="text-before-edge">Java Runtime Environment</text></g><g transform="translate(676.3021240234375 349.0000534057617) rotate(0 145.3479461669922 17.5)"><text x="0" y="0" font-family="Virgil, Segoe UI Emoji" font-size="28px" fill="#c92a2a" text-anchor="start" style="white-space: pre;" direction="ltr" dominant-baseline="text-before-edge">Java Virtual Machine</text></g><g stroke-linecap="round"><g transform="translate(110.00006103515625 60.099998474121094) rotate(0 20.767401611432433 9.895872527733445)"><path d="M0.53 1.69 C11.87 5.91, 23.01 12.03, 39.8 17.81 M-0.88 0.58 C12.55 6.83, 24.62 11.63, 42.41 19.22" stroke="#000000" stroke-width="1" fill="none"></path></g><g transform="translate(110.00006103515625 60.099998474121094) rotate(0 20.767401611432433 9.895872527733445)"><path d="M20.06 19.74 C26.23 18.96, 32.07 19.96, 40.62 17.82 M18.66 18.63 C26.78 19.51, 33.42 19.07, 43.23 19.23" stroke="#000000" stroke-width="1" fill="none"></path></g><g transform="translate(110.00006103515625 60.099998474121094) rotate(0 20.767401611432433 9.895872527733445)"><path d="M26.16 5.31 C30.5 8.65, 34.6 13.74, 40.62 17.82 M24.75 4.2 C31.01 9.22, 35.87 12.97, 43.23 19.23" stroke="#000000" stroke-width="1" fill="none"></path></g></g><mask></mask><g stroke-linecap="round"><g transform="translate(553.2001037597656 54.50000762939453) rotate(0 0.616624902933836 14.722293225117028)"><path d="M-0.88 -1.8 C-0.64 8.79, 0.2 21.23, 2.12 30.99 M0.05 0.82 C0.79 7.38, 0.11 14.22, -0.04 31.25" stroke="#000000" stroke-width="1" fill="none"></path></g><g transform="translate(553.2001037597656 54.50000762939453) rotate(0 0.616624902933836 14.722293225117028)"><path d="M-5.81 15.09 C-4.31 20.33, -2.27 27.05, 0.99 31.09 M-5.08 17.14 C-3.5 20.07, -3 23.19, -0.69 31.29" stroke="#000000" stroke-width="1" fill="none"></path></g><g transform="translate(553.2001037597656 54.50000762939453) rotate(0 0.616624902933836 14.722293225117028)"><path d="M4.87 15.27 C3.03 20.53, 1.75 27.19, 0.99 31.09 M5.59 17.32 C4.71 20.14, 2.74 23.22, -0.69 31.29" stroke="#000000" stroke-width="1" fill="none"></path></g></g><mask></mask><g stroke-linecap="round"><g transform="translate(826.8001403808594 346.49999237060547) rotate(0 -48.58299021795392 -82.32079864665866)"><path d="M-0.49 1.73 C-35.97 -61.87, -71.56 -125.87, -96.68 -166.37 M-0.6 0.33 C-20.4 -36.81, -40.92 -73.74, -96.55 -165.78" stroke="#000000" stroke-width="1" fill="none"></path></g><g transform="translate(826.8001403808594 346.49999237060547) rotate(0 -48.58299021795392 -82.32079864665866)"><path d="M-73.76 -145.12 C-82.47 -153.13, -90.54 -161.65, -97.23 -166.55 M-73.88 -146.51 C-78.41 -151.19, -83.08 -156.17, -97.1 -165.95" stroke="#000000" stroke-width="1" fill="none"></path></g><g transform="translate(826.8001403808594 346.49999237060547) rotate(0 -48.58299021795392 -82.32079864665866)"><path d="M-91.38 -134.59 C-93.36 -146.56, -94.78 -159.07, -97.23 -166.55 M-91.49 -135.98 C-92.15 -142.84, -92.98 -150.11, -97.1 -165.95" stroke="#000000" stroke-width="1" fill="none"></path></g></g><mask></mask></svg>